<svg xmlns="http://www.w3.org/2000/svg" xmlns:xlink="http://www.w3.org/1999/xlink" width="500" zoomAndPan="magnify" viewBox="0 0 375 374.999991" height="500" preserveAspectRatio="xMidYMid meet" version="1.0"><defs><g/><clipPath id="b04a9a2f04"><path d="M 187.5 0 C 83.945312 0 0 83.945312 0 187.5 C 0 291.054688 83.945312 375 187.5 375 C 291.054688 375 375 291.054688 375 187.5 C 375 83.945312 291.054688 0 187.5 0 Z M 187.5 0 " clip-rule="nonzero"/></clipPath><clipPath id="d377798228"><path d="M 67.210938 67.210938 L 307.789062 67.210938 L 307.789062 307.789062 L 67.210938 307.789062 Z M 67.210938 67.210938 " clip-rule="nonzero"/></clipPath><clipPath id="577ce7de37"><path d="M 187.5 67.210938 C 121.066406 67.210938 67.210938 121.066406 67.210938 187.5 C 67.210938 253.933594 121.066406 307.789062 187.5 307.789062 C 253.933594 307.789062 307.789062 253.933594 307.789062 187.5 C 307.789062 121.066406 253.933594 67.210938 187.5 67.210938 Z M 187.5 67.210938 " clip-rule="nonzero"/></clipPath><clipPath id="221eaaee5f"><path d="M 81 134 L 293.992188 134 L 293.992188 264 L 81 264 Z M 81 134 " clip-rule="nonzero"/></clipPath><clipPath id="dc42397928"><path d="M 81 133 L 293.992188 133 L 293.992188 265 L 81 265 Z M 81 133 " clip-rule="nonzero"/></clipPath><clipPath id="8126906b84"><path d="M 150.910156 163.117188 L 226.855469 163.117188 L 226.855469 175.257812 L 150.910156 175.257812 Z M 150.910156 163.117188 " clip-rule="nonzero"/></clipPath><clipPath id="8394d6a7df"><path d="M 21.515625 190 L 41 190 L 41 209.429688 L 21.515625 209.429688 Z M 21.515625 190 " clip-rule="nonzero"/></clipPath><clipPath id="e35b00f260"><path d="M 334.101562 191.878906 L 353.601562 191.878906 L 353.601562 211.378906 L 334.101562 211.378906 Z M 334.101562 191.878906 " clip-rule="nonzero"/></clipPath></defs><rect x="-37.5" width="450" fill="#ffffff" y="-37.499999" height="449.999989" fill-opacity="1"/><rect x="-37.5" width="450" fill="#ffffff" y="-37.499999" height="449.999989" fill-opacity="1"/><g clip-path="url(#b04a9a2f04)"><path stroke-linecap="butt" transform="matrix(0.75, 0, 0, 0.75, 0.0000045, 0.000000000000042633)" fill="none" stroke-linejoin="miter" d="M 249.999994 -0.000000000000056843 C 111.927078 -0.000000000000056843 -0.000006 111.927084 -0.000006 250 C -0.000006 388.072917 111.927078 500.000001 249.999994 500.000001 C 388.072911 500.000001 499.999995 388.072917 499.999995 250 C 499.999995 111.927084 388.072911 -0.000000000000056843 249.999994 -0.000000000000056843 Z M 249.999994 -0.000000000000056843 " stroke="#303030" stroke-width="6" stroke-opacity="1" stroke-miterlimit="4"/></g><g fill="#303030" fill-opacity="1"><g transform="translate(85.497792, 82.53285)"><g><path d="M -9.71875 -15.578125 L -3.953125 -20.328125 C -1.847656 -22.054688 0.429688 -22.820312 2.890625 -22.625 C 5.359375 -22.4375 7.425781 -21.320312 9.09375 -19.28125 C 10.769531 -17.25 11.460938 -15 11.171875 -12.53125 C 10.890625 -10.070312 9.679688 -7.96875 7.546875 -6.21875 L 1.84375 -1.515625 Z M -5.59375 -15.40625 L 2.46875 -5.59375 L 5.921875 -8.4375 C 7.304688 -9.570312 8.078125 -10.976562 8.234375 -12.65625 C 8.398438 -14.332031 7.894531 -15.878906 6.71875 -17.296875 C 5.550781 -18.710938 4.113281 -19.5 2.40625 -19.65625 C 0.695312 -19.8125 -0.847656 -19.316406 -2.234375 -18.171875 Z M -5.59375 -15.40625 "/></g></g></g><g fill="#303030" fill-opacity="1"><g transform="translate(102.4195, 68.881385)"><g><path d="M 5 -21.25 L -3.453125 -16.03125 L -0.875 -11.84375 L 6.6875 -16.5 L 8.140625 -14.15625 L 0.578125 -9.5 L 3.21875 -5.21875 L 11.9375 -10.59375 L 13.375 -8.25 L 2.03125 -1.25 L -7.53125 -16.75 L 3.546875 -23.59375 Z M 5 -21.25 "/></g></g></g><g fill="#303030" fill-opacity="1"><g transform="translate(118.283805, 59.081086)"><g><path d="M 16.640625 -7.34375 L 13.875 -6.125 L -0.265625 -14.15625 L 5 -2.203125 L 2.1875 -0.96875 L -5.15625 -17.625 L -2.390625 -18.84375 L 11.8125 -10.8125 L 6.53125 -22.78125 L 9.296875 -24 Z M 16.640625 -7.34375 "/></g></g></g><g fill="#303030" fill-opacity="1"><g transform="translate(138.73356, 50.375865)"><g><path d="M 9.90625 -18.984375 L 4.359375 -17.359375 L 8.6875 -2.53125 L 5.75 -1.671875 L 1.421875 -16.5 L -4.109375 -14.890625 L -4.890625 -17.53125 L 9.125 -21.625 Z M 9.90625 -18.984375 "/></g></g></g><g fill="#303030" fill-opacity="1"><g transform="translate(154.797226, 45.655678)"><g><path d="M 13.34375 -6.28125 L 4.265625 -4.84375 L 3.171875 -0.5 L 0.03125 0 L 5.109375 -19.25 L 8.21875 -19.75 L 18.9375 -3.015625 L 15.6875 -2.5 Z M 11.75 -8.8125 L 7.078125 -16.25 L 4.953125 -7.71875 Z M 11.75 -8.8125 "/></g></g></g><g fill="#303030" fill-opacity="1"><g transform="translate(175.475085, 42.636177)"><g><path d="M 5.375 -2.96875 L 13.234375 -3.25 L 13.328125 -0.46875 L 2.390625 -0.078125 L 1.75 -18.265625 L 4.828125 -18.375 Z M 5.375 -2.96875 "/></g></g></g><g fill="#303030" fill-opacity="1"><g transform="translate(191.43781, 42.313921)"><g/></g></g><g fill="#303030" fill-opacity="1"><g transform="translate(200.083962, 42.516711)"><g><path d="M 14.609375 -1.96875 L 5.515625 -3.328125 L 3.1875 0.46875 L 0.03125 0 L 10.65625 -16.8125 L 13.78125 -16.34375 L 18.953125 2.84375 L 15.71875 2.359375 Z M 13.859375 -4.84375 L 11.65625 -13.359375 L 7.0625 -5.859375 Z M 13.859375 -4.84375 "/></g></g></g><g fill="#303030" fill-opacity="1"><g transform="translate(220.656583, 45.801637)"><g><path d="M 13.09375 -15.34375 C 15.375 -14.6875 17.25 -13.492188 18.71875 -11.765625 L 16.734375 -9.53125 C 15.265625 -11.125 13.710938 -12.15625 12.078125 -12.625 C 11.191406 -12.875 10.445312 -12.910156 9.84375 -12.734375 C 9.25 -12.566406 8.867188 -12.191406 8.703125 -11.609375 C 8.535156 -11.023438 8.628906 -10.460938 8.984375 -9.921875 C 9.335938 -9.378906 9.832031 -8.910156 10.46875 -8.515625 C 11.113281 -8.117188 11.804688 -7.660156 12.546875 -7.140625 C 13.285156 -6.617188 13.957031 -6.09375 14.5625 -5.5625 C 15.164062 -5.039062 15.597656 -4.363281 15.859375 -3.53125 C 16.117188 -2.707031 16.109375 -1.804688 15.828125 -0.828125 C 15.378906 0.710938 14.410156 1.765625 12.921875 2.328125 C 11.429688 2.890625 9.710938 2.894531 7.765625 2.34375 C 6.429688 1.957031 5.210938 1.335938 4.109375 0.484375 C 3.015625 -0.367188 2.113281 -1.359375 1.40625 -2.484375 L 3.421875 -4.6875 C 4.066406 -3.613281 4.851562 -2.703125 5.78125 -1.953125 C 6.71875 -1.203125 7.664062 -0.691406 8.625 -0.421875 C 9.65625 -0.128906 10.507812 -0.0859375 11.1875 -0.296875 C 11.875 -0.503906 12.3125 -0.945312 12.5 -1.625 C 12.675781 -2.21875 12.585938 -2.785156 12.234375 -3.328125 C 11.890625 -3.867188 11.390625 -4.332031 10.734375 -4.71875 C 10.085938 -5.113281 9.394531 -5.566406 8.65625 -6.078125 C 7.925781 -6.585938 7.253906 -7.097656 6.640625 -7.609375 C 6.023438 -8.117188 5.582031 -8.78125 5.3125 -9.59375 C 5.050781 -10.414062 5.0625 -11.304688 5.34375 -12.265625 C 5.757812 -13.753906 6.675781 -14.773438 8.09375 -15.328125 C 9.519531 -15.878906 11.1875 -15.882812 13.09375 -15.34375 Z M 13.09375 -15.34375 "/></g></g></g><g fill="#303030" fill-opacity="1"><g transform="translate(237.846187, 50.827415)"><g><path d="M 14.84375 -13.65625 C 17.019531 -12.726562 18.738281 -11.320312 20 -9.4375 L 17.75 -7.453125 C 16.476562 -9.203125 15.0625 -10.40625 13.5 -11.0625 C 12.65625 -11.425781 11.925781 -11.554688 11.3125 -11.453125 C 10.695312 -11.359375 10.269531 -11.03125 10.03125 -10.46875 C 9.789062 -9.90625 9.816406 -9.335938 10.109375 -8.765625 C 10.398438 -8.191406 10.835938 -7.671875 11.421875 -7.203125 C 12.015625 -6.734375 12.644531 -6.191406 13.3125 -5.578125 C 13.976562 -4.960938 14.578125 -4.359375 15.109375 -3.765625 C 15.648438 -3.171875 16 -2.445312 16.15625 -1.59375 C 16.320312 -0.75 16.207031 0.140625 15.8125 1.078125 C 15.1875 2.554688 14.097656 3.484375 12.546875 3.859375 C 11.003906 4.242188 9.296875 4.039062 7.421875 3.25 C 6.148438 2.707031 5.015625 1.941406 4.015625 0.953125 C 3.023438 -0.0234375 2.253906 -1.109375 1.703125 -2.296875 L 3.953125 -4.234375 C 4.460938 -3.085938 5.132812 -2.085938 5.96875 -1.234375 C 6.8125 -0.390625 7.691406 0.222656 8.609375 0.609375 C 9.597656 1.023438 10.441406 1.171875 11.140625 1.046875 C 11.847656 0.921875 12.335938 0.535156 12.609375 -0.109375 C 12.859375 -0.679688 12.835938 -1.253906 12.546875 -1.828125 C 12.265625 -2.410156 11.828125 -2.9375 11.234375 -3.40625 C 10.640625 -3.875 10.003906 -4.398438 9.328125 -4.984375 C 8.660156 -5.578125 8.050781 -6.164062 7.5 -6.75 C 6.957031 -7.332031 6.601562 -8.046875 6.4375 -8.890625 C 6.269531 -9.734375 6.378906 -10.613281 6.765625 -11.53125 C 7.367188 -12.957031 8.40625 -13.859375 9.875 -14.234375 C 11.351562 -14.617188 13.007812 -14.425781 14.84375 -13.65625 Z M 14.84375 -13.65625 "/></g></g></g><g fill="#303030" fill-opacity="1"><g transform="translate(254.454337, 58.146611)"><g><path d="M 4.8125 2.59375 L 2.109375 1.125 L 10.734375 -14.90625 L 13.4375 -13.4375 Z M 4.8125 2.59375 "/></g></g></g><g fill="#303030" fill-opacity="1"><g transform="translate(263.169666, 62.716739)"><g><path d="M 17.140625 -10.625 C 19.109375 -9.3125 20.53125 -7.613281 21.40625 -5.53125 L 18.828125 -3.984375 C 17.910156 -5.953125 16.75 -7.40625 15.34375 -8.34375 C 14.570312 -8.851562 13.875 -9.117188 13.25 -9.140625 C 12.625 -9.160156 12.144531 -8.914062 11.8125 -8.40625 C 11.476562 -7.894531 11.398438 -7.328125 11.578125 -6.703125 C 11.753906 -6.085938 12.082031 -5.492188 12.5625 -4.921875 C 13.050781 -4.347656 13.566406 -3.695312 14.109375 -2.96875 C 14.660156 -2.25 15.144531 -1.546875 15.5625 -0.859375 C 15.976562 -0.179688 16.179688 0.585938 16.171875 1.453125 C 16.171875 2.316406 15.890625 3.171875 15.328125 4.015625 C 14.441406 5.359375 13.203125 6.070312 11.609375 6.15625 C 10.015625 6.238281 8.375 5.71875 6.6875 4.59375 C 5.53125 3.820312 4.554688 2.859375 3.765625 1.703125 C 2.984375 0.554688 2.429688 -0.65625 2.109375 -1.9375 L 4.6875 -3.421875 C 4.96875 -2.191406 5.441406 -1.082031 6.109375 -0.09375 C 6.773438 0.894531 7.519531 1.664062 8.34375 2.21875 C 9.238281 2.8125 10.039062 3.109375 10.75 3.109375 C 11.46875 3.117188 12.019531 2.835938 12.40625 2.265625 C 12.757812 1.742188 12.847656 1.171875 12.671875 0.546875 C 12.503906 -0.078125 12.171875 -0.671875 11.671875 -1.234375 C 11.179688 -1.796875 10.660156 -2.429688 10.109375 -3.140625 C 9.554688 -3.859375 9.066406 -4.550781 8.640625 -5.21875 C 8.222656 -5.894531 8.003906 -6.664062 7.984375 -7.53125 C 7.972656 -8.394531 8.25 -9.242188 8.8125 -10.078125 C 9.664062 -11.359375 10.851562 -12.046875 12.375 -12.140625 C 13.894531 -12.234375 15.484375 -11.726562 17.140625 -10.625 Z M 17.140625 -10.625 "/></g></g></g><g fill="#303030" fill-opacity="1"><g transform="translate(278.023539, 72.779354)"><g><path d="M 21.3125 -2.15625 L 16.90625 -5.90625 L 6.890625 5.859375 L 4.5625 3.875 L 14.578125 -7.890625 L 10.1875 -11.609375 L 11.96875 -13.71875 L 23.09375 -4.265625 Z M 21.3125 -2.15625 "/></g></g></g><g clip-path="url(#d377798228)"><g clip-path="url(#577ce7de37)"><path fill="#acc8d6" d="M 67.210938 67.210938 L 307.789062 67.210938 L 307.789062 307.789062 L 67.210938 307.789062 Z M 67.210938 67.210938 " fill-opacity="1" fill-rule="nonzero"/></g></g><g clip-path="url(#221eaaee5f)"><path fill="#efefef" d="M 249.164062 159.546875 C 249.855469 166.695312 248.472656 173.882812 246.496094 180.785156 C 241.976562 196.5625 234.382812 211.265625 226.847656 225.84375 C 223.386719 232.519531 222.511719 239.953125 220.292969 246.996094 C 219.597656 249.277344 218.746094 251.496094 217.605469 253.636719 C 214.855469 258.847656 207.585938 266.972656 201.191406 262.0625 C 198.871094 260.292969 197.570312 257.523438 196.367188 254.875 C 194.472656 250.703125 192.582031 246.527344 190.6875 242.375 C 190.117188 241.132812 189.445312 239.808594 188.203125 239.28125 C 187.023438 238.773438 185.738281 239.179688 184.640625 239.972656 C 184.050781 240.359375 183.519531 240.867188 183.070312 241.378906 C 181.605469 243.066406 180.75 245.0625 179.996094 247.121094 C 179.285156 249.074219 178.695312 251.128906 177.757812 253.042969 C 176.066406 256.566406 173.910156 260.007812 170.609375 262.207031 C 167.476562 264.285156 163.363281 262.308594 160.917969 259.886719 C 158.152344 257.136719 156.011719 253.066406 154.464844 249.480469 C 150.820312 240.929688 129.910156 205.542969 126.9375 196.378906 C 124.289062 188.234375 122.011719 179.867188 121.601562 171.316406 C 121.523438 169.851562 121.523438 168.363281 121.5625 166.898438 C 121.625 164.882812 121.804688 162.847656 122.132812 160.832031 C 122.683594 157.289062 123.660156 153.785156 125.144531 150.507812 C 127.304688 145.722656 130.378906 142.242188 134.777344 139.328125 C 142.980469 133.894531 153.304688 132.894531 162.285156 137.027344 C 170.386719 140.753906 179.324219 144.257812 188.40625 142.710938 C 193.355469 141.855469 197.589844 139.390625 202.332031 137.964844 C 207.808594 136.316406 213.410156 134.871094 219.152344 134.566406 C 226.582031 134.15625 234.402344 135.808594 240.0625 140.613281 C 241.75 142.039062 243.175781 143.6875 244.398438 145.5 C 247.128906 149.613281 248.695312 154.578125 249.164062 159.546875 Z M 293.160156 151.421875 C 292.816406 150.949219 292.25 150.792969 291.652344 150.777344 C 291.738281 150.675781 291.828125 150.574219 291.914062 150.472656 C 292.097656 150.257812 292.289062 150.019531 292.316406 149.738281 C 292.359375 149.285156 291.964844 148.90625 291.558594 148.699219 C 290.394531 148.105469 288.96875 148.339844 287.789062 148.90625 C 286.960938 148.410156 285.859375 148.390625 284.96875 148.640625 C 283.769531 148.976562 282.726562 149.695312 281.621094 150.261719 C 280.0625 151.058594 278.382812 151.550781 276.707031 152.058594 C 276.277344 152.25 276.199219 152.097656 276.125 152.105469 C 276.1875 151.097656 276.25 150.089844 276.3125 149.078125 C 276.394531 147.78125 276.351562 146.214844 275.246094 145.527344 C 274.222656 144.886719 272.824219 145.425781 272.023438 146.324219 C 271.222656 147.222656 270.828125 148.398438 270.257812 149.457031 C 268.988281 151.804688 266.871094 153.558594 265.066406 155.523438 C 263.785156 156.921875 262.65625 158.578125 262.152344 160.371094 C 261.996094 160.421875 261.839844 160.472656 261.6875 160.535156 C 259.746094 161.339844 259.105469 163.398438 258.683594 165.300781 C 258.574219 165.785156 258.496094 166.300781 258.652344 166.773438 C 258.828125 167.296875 259.265625 167.683594 259.71875 168 C 261.027344 168.921875 262.585938 169.445312 264.167969 169.707031 C 265.75 169.964844 267.359375 169.96875 268.960938 169.925781 C 271.207031 169.863281 273.613281 169.648438 275.335938 168.207031 C 276.640625 167.121094 277.347656 165.492188 278.011719 163.929688 C 278.167969 163.558594 278.402344 163.15625 278.480469 162.773438 C 278.578125 162.726562 278.675781 162.6875 278.769531 162.636719 C 279.753906 162.140625 280.734375 161.644531 281.714844 161.144531 C 283.679688 160.148438 285.640625 159.15625 287.605469 158.160156 C 289.726562 157.082031 291.980469 155.878906 293.070312 153.769531 C 293.449219 153.035156 293.648438 152.085938 293.160156 151.421875 Z M 118.507812 222.292969 C 118.132812 221.472656 117.554688 220.710938 116.78125 220.234375 C 115.847656 219.65625 114.996094 219.773438 113.976562 220.078125 C 112.914062 220.394531 111.871094 220.773438 110.847656 221.210938 C 110.582031 221.324219 110.324219 221.453125 110.058594 221.574219 C 109.949219 221.550781 109.839844 221.523438 109.726562 221.5 C 106.855469 220.953125 103.851562 220.796875 101.203125 219.5625 C 100.007812 219.007812 98.890625 218.234375 97.601562 217.96875 C 96.308594 217.703125 94.730469 218.144531 94.25 219.371094 C 93.730469 220.699219 94.710938 222.105469 95.632812 223.191406 C 96.347656 224.039062 97.0625 224.882812 97.777344 225.726562 C 97.707031 225.769531 97.632812 225.800781 97.5625 225.84375 C 97.464844 225.902344 97.386719 225.984375 97.289062 226.046875 C 95.46875 226.703125 93.648438 227.378906 91.746094 227.699219 C 90.402344 227.925781 89.015625 227.980469 87.746094 228.464844 C 86.796875 228.828125 85.84375 229.566406 85.4375 230.542969 C 84.035156 230.816406 82.625 231.542969 81.988281 232.824219 C 81.769531 233.273438 81.671875 233.863281 82.007812 234.234375 C 82.214844 234.464844 82.539062 234.546875 82.839844 234.617188 C 82.984375 234.648438 83.128906 234.679688 83.269531 234.710938 C 82.753906 235.117188 82.359375 235.625 82.363281 236.265625 C 82.375 237.617188 83.964844 238.511719 85.121094 238.683594 C 86.800781 238.9375 88.503906 238.574219 90.164062 238.324219 C 94.421875 237.675781 98.761719 237.707031 103.007812 236.976562 C 105.0625 236.621094 107.109375 236.070312 109.015625 235.210938 C 109.542969 235.484375 110.136719 235.644531 110.734375 235.667969 C 111.75 235.707031 112.75 235.4375 113.710938 235.113281 C 116.386719 234.207031 118.671875 232.691406 119.238281 229.75 C 119.488281 228.4375 119.410156 227.085938 119.28125 225.757812 C 119.160156 224.574219 118.996094 223.375 118.507812 222.292969 Z M 118.507812 222.292969 " fill-opacity="1" fill-rule="nonzero"/></g><path fill="#ffffff" d="M 228.246094 147.199219 C 228.035156 147.019531 227.601562 146.777344 228.246094 147.199219 Z M 228.246094 147.199219 " fill-opacity="1" fill-rule="nonzero"/><path fill="#ffffff" d="M 218.257812 142.308594 C 217.121094 141.496094 217.015625 139.902344 218.257812 139.109375 C 219.460938 138.34375 220.988281 138.382812 222.359375 138.265625 C 223.503906 138.171875 224.617188 138.109375 225.765625 138.191406 C 228.539062 138.390625 231.164062 139.058594 233.53125 140.5625 C 235.691406 141.933594 237.675781 143.859375 238.894531 146.132812 C 239.269531 146.828125 239.625 147.582031 239.828125 148.339844 C 240.035156 149.121094 240.054688 150.105469 239.84375 150.886719 C 239.71875 151.351562 239.441406 151.777344 239.320312 152.238281 L 239.441406 151.863281 C 239.273438 152.457031 238.976562 152.972656 238.542969 153.40625 C 238.117188 153.796875 237.566406 154.199219 236.996094 154.328125 C 235.960938 154.5625 234.835938 154.34375 233.988281 153.707031 C 232.890625 153.121094 232.042969 152.25 231.433594 151.074219 C 231.097656 150.421875 230.683594 149.816406 230.269531 149.210938 C 230.171875 149.101562 230.078125 148.988281 229.976562 148.878906 C 229.691406 148.5625 229.386719 148.269531 229.085938 147.972656 C 228.816406 147.707031 228.539062 147.449219 228.25 147.203125 C 228.25 147.199219 228.246094 147.199219 228.246094 147.199219 C 228.300781 147.234375 228.347656 147.261719 228.414062 147.308594 C 228.273438 147.21875 228.140625 147.105469 228.003906 147.007812 C 226.496094 145.933594 224.929688 144.96875 223.257812 144.171875 C 223.175781 144.132812 223.15625 144.121094 223.128906 144.105469 C 223.117188 144.105469 223.113281 144.105469 223.050781 144.082031 C 222.675781 143.9375 222.304688 143.769531 221.929688 143.617188 C 222.21875 143.734375 221.90625 143.597656 221.792969 143.558594 C 221.558594 143.476562 221.316406 143.40625 221.078125 143.339844 C 220.128906 143.066406 219.074219 142.890625 218.257812 142.308594 Z M 241.726562 164.132812 C 241.023438 162.140625 237.644531 162.28125 237.808594 164.664062 C 238.535156 175.371094 231.292969 184.882812 226.335938 193.726562 C 223.710938 198.410156 221.34375 203.257812 219.503906 208.304688 C 218.554688 210.902344 217.578125 213.59375 217.109375 216.328125 C 216.617188 219.1875 217.117188 221.605469 217.527344 224.421875 C 217.832031 226.523438 220.761719 226.457031 221.722656 224.972656 C 223.300781 222.527344 224.78125 220.539062 225.828125 217.765625 C 226.816406 215.144531 227.699219 212.492188 228.757812 209.894531 C 230.847656 204.761719 233.503906 199.992188 236.175781 195.148438 C 241.46875 185.546875 245.546875 174.980469 241.726562 164.132812 Z M 158.808594 139.996094 C 158.550781 139.554688 158.25 139.230469 157.863281 138.90625 C 157.339844 138.460938 156.742188 138.121094 156.121094 137.835938 C 154.535156 137.105469 152.796875 136.890625 151.0625 136.898438 C 148.285156 136.910156 145.398438 137.390625 142.8125 138.429688 C 138.109375 140.328125 134.378906 143.84375 131.78125 148.164062 C 130.820312 149.761719 132.863281 152.152344 134.507812 150.894531 C 137.796875 148.382812 141.167969 147.148438 145.148438 146.183594 C 145.699219 146.046875 146.257812 145.933594 146.816406 145.824219 C 147.097656 145.765625 147.386719 145.726562 147.667969 145.664062 C 147.714844 145.652344 147.738281 145.644531 147.769531 145.636719 C 147.792969 145.632812 147.800781 145.632812 147.832031 145.632812 C 148.976562 145.515625 150.128906 145.425781 151.277344 145.421875 C 152.652344 145.417969 153.988281 145.441406 155.351562 145.195312 C 155.582031 145.175781 155.617188 145.164062 155.457031 145.152344 C 155.203125 145.125 155.332031 145.101562 155.84375 145.074219 C 156.320312 145.007812 156.667969 144.925781 157.109375 144.726562 C 157.765625 144.429688 158.175781 143.972656 158.707031 143.53125 C 159.570312 142.8125 159.457031 141.597656 159.070312 140.699219 C 159.3125 141.257812 158.960938 140.261719 158.808594 139.996094 Z M 175.894531 151.367188 C 175.816406 151.378906 175.753906 151.378906 175.679688 151.386719 C 175.53125 151.402344 175.375 151.464844 175.238281 151.457031 C 175.457031 151.425781 175.675781 151.398438 175.894531 151.367188 Z M 177.003906 147.214844 C 176.910156 147.136719 176.835938 147.035156 176.730469 146.96875 C 176.523438 146.8125 176.292969 146.703125 176.03125 146.640625 C 176.578125 146.832031 176.492188 146.78125 175.769531 146.496094 C 175.40625 146.359375 175.023438 146.277344 174.652344 146.164062 C 174.285156 146.050781 173.921875 145.898438 173.550781 145.796875 C 173.179688 145.691406 172.804688 145.632812 172.441406 145.492188 C 172.394531 145.472656 172.34375 145.453125 172.296875 145.433594 C 172.128906 145.355469 171.957031 145.277344 171.789062 145.199219 C 171.488281 145.0625 171.179688 144.929688 170.871094 144.8125 C 170.84375 144.804688 170.855469 144.808594 170.839844 144.800781 C 170.796875 144.78125 170.753906 144.765625 170.707031 144.746094 C 170.269531 144.546875 169.816406 144.25 169.351562 144.144531 C 169.28125 144.121094 169.265625 144.117188 169.25 144.113281 C 169.203125 144.09375 169.15625 144.074219 169.109375 144.050781 C 168.945312 143.960938 168.789062 143.847656 168.628906 143.742188 C 168.007812 143.332031 167.136719 143.570312 166.703125 144.125 C 166.214844 144.757812 166.355469 145.492188 166.820312 146.085938 C 166.847656 146.121094 167.035156 146.371094 167.066406 146.40625 C 167.152344 146.535156 167.234375 146.664062 167.316406 146.792969 C 167.582031 147.207031 167.917969 147.566406 168.261719 147.914062 C 168.875 148.53125 169.546875 149.054688 170.277344 149.523438 C 171.050781 150.015625 171.757812 150.472656 172.617188 150.816406 C 172.980469 150.960938 173.34375 151.089844 173.714844 151.210938 C 173.902344 151.269531 174.085938 151.324219 174.277344 151.363281 C 174.792969 151.46875 175.199219 151.445312 175.679688 151.386719 C 175.917969 151.363281 176.148438 151.363281 176.378906 151.277344 C 176.773438 151.230469 177.152344 151.144531 177.523438 150.945312 C 178.679688 150.316406 178.769531 148.730469 177.921875 147.828125 C 177.644531 147.535156 177.339844 147.371094 177.003906 147.214844 Z M 177.003906 147.214844 " fill-opacity="1" fill-rule="nonzero"/><path fill="#f2bddb" d="M 211.621094 180.152344 C 212.195312 180.273438 212.785156 180.460938 213.203125 180.867188 C 213.667969 181.316406 213.882812 182.117188 213.359375 182.566406 C 212.882812 182.96875 212.417969 183.3125 211.804688 183.496094 C 209.878906 184.058594 207.730469 184.265625 205.925781 183.394531 C 205.355469 183.117188 204.777344 182.632812 204.792969 182 C 204.808594 181.363281 205.40625 180.910156 205.976562 180.632812 C 207.636719 179.824219 209.84375 179.777344 211.621094 180.152344 Z M 169.179688 180.152344 C 168.605469 180.273438 168.019531 180.460938 167.597656 180.867188 C 167.136719 181.316406 166.917969 182.117188 167.441406 182.566406 C 167.917969 182.96875 168.382812 183.3125 168.996094 183.496094 C 170.921875 184.058594 173.070312 184.265625 174.875 183.394531 C 175.445312 183.117188 176.023438 182.632812 176.007812 182 C 175.992188 181.363281 175.394531 180.910156 174.824219 180.632812 C 173.164062 179.824219 170.957031 179.777344 169.179688 180.152344 Z M 169.179688 180.152344 " fill-opacity="1" fill-rule="nonzero"/><g clip-path="url(#dc42397928)"><path fill="#303030" d="M 293.785156 150.96875 C 293.570312 150.683594 293.285156 150.445312 292.953125 150.28125 C 293.003906 150.140625 293.050781 149.996094 293.074219 149.808594 C 293.144531 149.097656 292.695312 148.410156 291.914062 148.007812 C 290.75 147.4375 289.285156 147.460938 287.816406 148.054688 C 286.9375 147.675781 285.824219 147.605469 284.757812 147.914062 C 283.8125 148.171875 282.984375 148.648438 282.175781 149.097656 C 281.894531 149.261719 281.585938 149.429688 281.277344 149.570312 C 279.925781 150.28125 278.480469 150.730469 276.941406 151.179688 L 277.085938 149.121094 C 277.179688 147.628906 277.085938 145.78125 275.640625 144.878906 C 274.242188 144.003906 272.441406 144.714844 271.445312 145.828125 C 270.832031 146.515625 270.429688 147.34375 270.050781 148.148438 C 269.90625 148.480469 269.742188 148.789062 269.574219 149.097656 C 268.699219 150.730469 267.394531 152.058594 266 153.453125 C 265.5 153.953125 264.980469 154.472656 264.507812 155.019531 C 263.0625 156.582031 262.066406 158.191406 261.546875 159.78125 C 261.5 159.804688 261.449219 159.804688 261.402344 159.828125 C 259.175781 160.75 258.417969 162.929688 257.945312 165.132812 C 257.804688 165.726562 257.707031 166.363281 257.921875 167.003906 C 258.183594 167.785156 258.820312 168.308594 259.273438 168.613281 C 259.980469 169.113281 260.765625 169.515625 261.664062 169.847656 C 261.046875 171.078125 260.410156 172.285156 259.746094 173.46875 C 257.164062 178.136719 254.25 182.636719 250.625 186.59375 C 248.375 189.058594 245.886719 191.234375 243.140625 193.082031 C 244.679688 189.105469 246.054688 185.078125 247.238281 180.980469 C 248.753906 175.648438 250.695312 167.597656 249.9375 159.472656 C 249.417969 154.09375 247.710938 149.121094 245.035156 145.070312 C 243.757812 143.152344 242.242188 141.445312 240.558594 140.023438 C 235.277344 135.546875 227.648438 133.34375 219.097656 133.792969 C 213.105469 134.125 207.371094 135.640625 202.113281 137.230469 C 200.195312 137.796875 198.347656 138.554688 196.570312 139.265625 C 193.800781 140.402344 191.195312 141.46875 188.257812 141.964844 C 179.207031 143.507812 170.277344 139.859375 162.605469 136.328125 C 153.484375 132.136719 142.921875 133.011719 134.34375 138.699219 C 129.773438 141.730469 126.625 145.378906 124.445312 150.1875 C 122.21875 155.113281 120.984375 160.726562 120.796875 166.886719 C 120.75 168.332031 120.773438 169.847656 120.84375 171.339844 C 121.292969 180.433594 123.804688 189.222656 126.21875 196.636719 C 126.859375 198.625 128.328125 201.824219 130.269531 205.707031 L 130.269531 205.734375 C 129.988281 207.320312 129.585938 208.882812 129.085938 210.398438 C 128.019531 213.667969 126.339844 216.816406 124.019531 219.375 C 122.855469 220.632812 121.578125 221.746094 120.109375 222.644531 C 119.917969 222.765625 119.730469 222.882812 119.539062 222.953125 C 119.46875 222.621094 119.351562 222.289062 119.210938 221.980469 C 118.734375 220.941406 118.023438 220.109375 117.171875 219.589844 C 115.917969 218.808594 114.757812 219.042969 113.761719 219.351562 C 112.671875 219.660156 111.582031 220.0625 110.539062 220.511719 C 110.351562 220.585938 110.160156 220.679688 109.996094 220.773438 L 109.875 220.75 C 109.09375 220.609375 108.3125 220.488281 107.53125 220.371094 C 105.398438 220.039062 103.363281 219.730469 101.515625 218.878906 C 101.183594 218.714844 100.828125 218.523438 100.496094 218.335938 C 99.644531 217.882812 98.765625 217.433594 97.75 217.222656 C 96.183594 216.914062 94.171875 217.433594 93.53125 219.09375 C 92.867188 220.796875 94.007812 222.433594 95.046875 223.6875 L 96.589844 225.488281 C 94.90625 226.105469 93.296875 226.671875 91.613281 226.957031 C 91.234375 227.003906 90.855469 227.050781 90.476562 227.097656 C 89.480469 227.242188 88.464844 227.382812 87.46875 227.761719 C 86.355469 228.1875 85.429688 228.96875 84.910156 229.871094 C 83.226562 230.296875 81.925781 231.242188 81.308594 232.476562 C 80.882812 233.328125 80.929688 234.203125 81.453125 234.75 C 81.59375 234.914062 81.734375 235.011719 81.902344 235.105469 C 81.710938 235.460938 81.59375 235.863281 81.59375 236.265625 C 81.617188 238.113281 83.605469 239.226562 85.003906 239.441406 C 85.453125 239.511719 85.882812 239.535156 86.332031 239.535156 C 87.421875 239.535156 88.511719 239.367188 89.578125 239.179688 L 90.289062 239.085938 C 92.253906 238.777344 94.3125 238.609375 96.28125 238.46875 C 98.53125 238.300781 100.851562 238.113281 103.125 237.734375 C 105.304688 237.355469 107.269531 236.785156 109 236.050781 C 109.542969 236.265625 110.113281 236.40625 110.707031 236.429688 C 111.867188 236.453125 113.003906 236.148438 113.949219 235.839844 C 117.480469 234.632812 119.445312 232.6875 119.992188 229.894531 L 119.992188 229.871094 C 122.429688 229.089844 124.777344 227.40625 126.550781 225.890625 C 130.035156 222.953125 132.570312 218.972656 134.320312 214.804688 C 134.417969 214.542969 134.535156 214.285156 134.628906 214.023438 C 137.1875 218.855469 140.054688 224.066406 142.777344 229.015625 C 147.65625 237.875 152.253906 246.261719 153.746094 249.789062 C 155.851562 254.597656 158.007812 258.105469 160.378906 260.449219 C 163.242188 263.269531 167.625 265.09375 171.035156 262.84375 C 174.730469 260.378906 176.957031 256.496094 178.449219 253.390625 C 179.160156 251.898438 179.707031 250.359375 180.203125 248.890625 C 181.082031 246.308594 181.910156 243.867188 183.636719 241.878906 C 184.773438 240.578125 186.503906 239.390625 187.902344 239.984375 C 188.875 240.386719 189.441406 241.5 189.988281 242.683594 L 195.671875 255.191406 C 196.855469 257.796875 198.207031 260.734375 200.71875 262.675781 C 202.183594 263.789062 203.75 264.335938 205.40625 264.335938 C 205.976562 264.335938 206.542969 264.289062 207.136719 264.144531 C 212.324219 263.007812 216.585938 257.230469 218.269531 253.984375 C 220.636719 249.484375 221.847656 244.578125 223.007812 239.84375 C 224.121094 235.246094 225.28125 230.507812 227.507812 226.199219 C 231.511719 218.476562 235.5625 210.636719 239.183594 202.558594 C 239.988281 202.226562 240.75 201.871094 241.484375 201.515625 C 246.410156 199.195312 250.863281 195.761719 254.605469 191.851562 C 258.5625 187.707031 261.828125 182.898438 264.648438 177.949219 C 266 175.578125 267.253906 173.164062 268.4375 170.699219 L 268.984375 170.699219 C 271.445312 170.628906 273.957031 170.34375 275.828125 168.804688 C 277.296875 167.574219 278.054688 165.796875 278.71875 164.234375 L 278.859375 163.925781 C 278.933594 163.734375 279.050781 163.523438 279.121094 163.308594 L 287.957031 158.832031 C 289.875 157.859375 292.503906 156.535156 293.761719 154.117188 C 294.066406 153.527344 294.210938 152.933594 294.210938 152.390625 C 294.210938 151.867188 294.066406 151.371094 293.785156 150.96875 Z M 113.453125 234.394531 C 112.648438 234.65625 111.699219 234.9375 110.777344 234.890625 C 110.539062 234.890625 110.277344 234.84375 110.042969 234.796875 C 110.089844 234.75 110.136719 234.703125 110.183594 234.65625 C 110.988281 233.824219 111.628906 232.832031 112.078125 231.765625 C 112.554688 230.652344 112.835938 229.46875 112.859375 228.257812 C 112.882812 228.1875 112.882812 228.117188 112.882812 228.046875 C 112.882812 227.382812 112.8125 226.71875 112.671875 226.078125 L 112.671875 226.054688 C 112.53125 225.394531 112.246094 224.847656 111.984375 224.257812 C 111.796875 223.851562 111.226562 224.136719 111.320312 224.515625 C 111.535156 225.605469 111.535156 226.839844 111.441406 227.953125 C 111.34375 229.039062 111.085938 230.203125 110.609375 231.195312 C 110.183594 232.074219 109.664062 232.902344 109.023438 233.613281 C 108.621094 234.085938 108.148438 234.488281 107.695312 234.914062 C 106.253906 235.484375 104.640625 235.910156 102.890625 236.21875 C 100.664062 236.597656 98.386719 236.785156 96.160156 236.953125 C 94.171875 237.09375 92.085938 237.261719 90.050781 237.566406 L 89.316406 237.6875 C 87.964844 237.898438 86.542969 238.136719 85.242188 237.921875 C 84.367188 237.804688 83.132812 237.140625 83.132812 236.265625 C 83.132812 236.171875 83.132812 235.980469 83.371094 235.695312 L 83.371094 235.6875 C 85.273438 235 87.074219 234.226562 89.101562 233.832031 C 90.53125 233.550781 91.976562 233.394531 93.417969 233.203125 C 94.53125 233.050781 95.742188 232.964844 96.757812 232.4375 C 97.628906 231.988281 98.210938 231.214844 98.796875 230.453125 C 99.574219 229.4375 100.433594 228.496094 101.398438 227.652344 C 103.410156 225.898438 105.703125 224.902344 108.179688 224 C 108.535156 223.871094 108.519531 223.238281 108.085938 223.285156 C 105.828125 223.53125 103.59375 224.511719 101.71875 225.765625 C 100.722656 226.429688 99.78125 227.191406 98.953125 228.050781 C 98.09375 228.945312 97.449219 230.214844 96.433594 230.929688 C 95.28125 231.738281 93.5 231.730469 92.15625 231.902344 C 90.804688 232.078125 89.457031 232.253906 88.125 232.539062 C 86.671875 232.855469 84.929688 233.238281 83.570312 234.070312 C 83.566406 234.070312 83.5625 234.0625 83.558594 234.0625 C 83.488281 233.992188 83.371094 233.96875 83.277344 233.945312 L 83.015625 233.871094 C 82.898438 233.847656 82.636719 233.777344 82.566406 233.730469 C 82.542969 233.683594 82.519531 233.46875 82.683594 233.164062 C 83.015625 232.476562 83.703125 231.929688 84.578125 231.574219 C 84.585938 231.574219 84.589844 231.570312 84.597656 231.570312 C 86.335938 231.234375 88.046875 230.726562 89.792969 230.40625 C 91.847656 230.03125 93.914062 229.8125 95.980469 229.511719 C 96.386719 229.453125 96.285156 228.796875 95.882812 228.804688 C 93.742188 228.832031 91.589844 229.085938 89.464844 229.347656 C 88.710938 229.4375 87.921875 229.53125 87.148438 229.667969 C 87.152344 229.664062 87.15625 229.660156 87.160156 229.65625 C 87.421875 229.445312 87.707031 229.300781 88.011719 229.183594 C 88.84375 228.875 89.742188 228.757812 90.691406 228.613281 C 91.070312 228.566406 91.472656 228.519531 91.875 228.449219 C 93.746094 228.140625 95.523438 227.5 97.25 226.863281 L 97.703125 226.695312 C 97.726562 226.671875 97.984375 226.484375 98.007812 226.457031 C 98.03125 226.457031 98.152344 226.386719 98.175781 226.386719 C 98.363281 226.269531 98.507812 226.054688 98.53125 225.84375 C 98.578125 225.628906 98.507812 225.394531 98.363281 225.226562 L 96.207031 222.691406 C 95.425781 221.769531 94.597656 220.609375 94.953125 219.660156 C 95.214844 218.972656 96.066406 218.664062 96.871094 218.664062 C 97.0625 218.664062 97.25 218.664062 97.441406 218.714844 C 98.246094 218.878906 98.980469 219.28125 99.785156 219.683594 C 100.140625 219.898438 100.496094 220.085938 100.875 220.253906 C 102.9375 221.199219 105.140625 221.554688 107.292969 221.863281 C 108.078125 221.980469 108.835938 222.101562 109.710938 222.289062 C 109.734375 222.289062 109.898438 222.3125 109.898438 222.3125 C 110.066406 222.359375 110.230469 222.335938 110.375 222.265625 L 111.15625 221.910156 C 112.125 221.484375 113.167969 221.105469 114.1875 220.796875 C 115.113281 220.539062 115.703125 220.464844 116.367188 220.890625 C 116.957031 221.246094 117.480469 221.863281 117.8125 222.597656 C 117.953125 222.90625 118.070312 223.238281 118.144531 223.570312 C 118.355469 224.328125 118.453125 225.132812 118.523438 225.84375 C 118.640625 227.074219 118.710938 228.378906 118.5 229.609375 C 118.453125 229.824219 118.402344 230.058594 118.332031 230.25 C 117.71875 232.144531 116.152344 233.46875 113.453125 234.394531 Z M 237.171875 203.339844 C 233.714844 210.894531 229.898438 218.238281 226.15625 225.488281 C 223.859375 229.964844 222.675781 234.796875 221.515625 239.488281 C 220.378906 244.128906 219.214844 248.9375 216.917969 253.273438 C 214.882812 257.179688 210.832031 261.777344 206.804688 262.652344 C 204.957031 263.078125 203.226562 262.675781 201.664062 261.46875 C 199.4375 259.761719 198.183594 256.992188 197.070312 254.550781 L 191.382812 242.046875 C 190.722656 240.625 189.960938 239.203125 188.496094 238.5625 C 188.066406 238.398438 187.59375 238.300781 187.097656 238.300781 C 185.605469 238.300781 183.945312 239.203125 182.5 240.859375 C 180.558594 243.085938 179.636719 245.789062 178.757812 248.394531 C 178.261719 249.839844 177.765625 251.332031 177.078125 252.703125 C 175.65625 255.640625 173.59375 259.3125 170.183594 261.5625 C 167.507812 263.339844 163.789062 261.65625 161.46875 259.359375 C 159.242188 257.15625 157.179688 253.816406 155.167969 249.175781 C 153.625 245.574219 149.222656 237.566406 144.128906 228.28125 C 141.167969 222.90625 138.0625 217.246094 135.316406 212.082031 C 133.5625 208.765625 131.953125 205.660156 130.648438 203.007812 C 129.230469 200.117188 128.1875 197.726562 127.664062 196.164062 C 125.296875 188.84375 122.808594 180.175781 122.359375 171.269531 C 122.289062 169.800781 122.265625 168.355469 122.3125 166.933594 C 122.5 160.988281 123.6875 155.5625 125.839844 150.824219 C 127.878906 146.277344 130.863281 142.84375 135.199219 139.953125 C 143.324219 134.578125 153.320312 133.746094 161.964844 137.726562 C 163.742188 138.554688 165.589844 139.386719 167.507812 140.144531 C 167.53125 140.144531 167.554688 140.167969 167.578125 140.167969 C 167.609375 140.179688 167.640625 140.1875 167.671875 140.203125 C 178.199219 146.339844 191.363281 148.136719 203.125 145.082031 C 203.574219 144.964844 203.382812 144.304688 202.9375 144.394531 C 195.21875 145.941406 187.382812 145.460938 179.855469 143.585938 C 182.695312 143.953125 185.582031 143.953125 188.519531 143.460938 C 191.597656 142.9375 194.417969 141.800781 197.140625 140.6875 C 198.894531 139.976562 200.691406 139.242188 202.539062 138.699219 C 207.726562 137.132812 213.34375 135.640625 219.191406 135.335938 C 227.339844 134.882812 234.589844 136.96875 239.585938 141.207031 C 241.152344 142.535156 242.546875 144.121094 243.757812 145.921875 C 246.316406 149.761719 247.925781 154.496094 248.398438 159.613281 C 248.992188 165.605469 248.136719 172.261719 245.769531 180.578125 C 244.417969 185.289062 242.785156 189.933594 240.960938 194.480469 C 239.777344 197.464844 238.496094 200.425781 237.171875 203.339844 Z M 292.386719 153.40625 C 291.4375 155.253906 289.519531 156.34375 287.269531 157.480469 L 278.578125 161.886719 C 278.53125 161.910156 278.480469 161.910156 278.433594 161.957031 C 278.339844 161.980469 278.246094 162.007812 278.148438 162.078125 C 277.464844 162.335938 276.753906 162.644531 276.042969 162.859375 C 274.667969 163.308594 273.246094 163.546875 271.800781 163.570312 C 271.566406 163.570312 271.351562 163.570312 271.113281 163.546875 C 270.027344 163.523438 268.960938 163.378906 267.871094 163.167969 C 267.066406 163 266.234375 162.835938 265.476562 162.550781 C 264.863281 162.335938 264.269531 162.054688 263.726562 161.675781 C 263.296875 161.367188 262.964844 161.980469 263.226562 162.335938 C 263.652344 162.90625 264.222656 163.308594 264.839844 163.640625 C 265.574219 164.042969 266.425781 164.304688 267.230469 164.515625 C 268.414062 164.847656 269.648438 165.0625 270.878906 165.132812 C 271.140625 165.15625 271.421875 165.15625 271.683594 165.15625 C 273.390625 165.15625 275.285156 164.894531 277.011719 164.28125 C 276.492188 165.511719 275.851562 166.765625 274.859375 167.621094 C 273.339844 168.898438 271.164062 169.089844 269.195312 169.160156 L 268.9375 169.160156 C 267.445312 169.207031 265.832031 169.207031 264.292969 168.945312 C 263.605469 168.828125 262.941406 168.6875 262.351562 168.472656 C 261.523438 168.1875 260.789062 167.808594 260.148438 167.382812 C 259.886719 167.167969 259.484375 166.886719 259.367188 166.53125 C 259.273438 166.246094 259.34375 165.84375 259.4375 165.464844 C 259.886719 163.378906 260.503906 161.863281 261.972656 161.25 C 262.113281 161.175781 262.234375 161.152344 262.375 161.105469 C 262.636719 161.035156 262.824219 160.820312 262.894531 160.585938 C 263.296875 159.09375 264.222656 157.578125 265.621094 156.035156 C 266.09375 155.515625 266.589844 155.019531 267.089844 154.519531 C 268.484375 153.101562 269.953125 151.632812 270.925781 149.808594 C 271.113281 149.5 271.257812 149.144531 271.421875 148.8125 C 271.777344 148.078125 272.109375 147.367188 272.582031 146.824219 C 273.011719 146.371094 273.671875 146.015625 274.242188 146.015625 C 274.457031 146.015625 274.667969 146.066406 274.835938 146.183594 C 275.59375 146.65625 275.617188 147.960938 275.542969 149.027344 L 275.355469 152.058594 C 275.355469 152.269531 275.402344 152.507812 275.570312 152.648438 C 275.710938 152.816406 275.921875 152.886719 276.136719 152.863281 C 276.253906 152.886719 276.515625 152.910156 276.917969 152.792969 L 277.15625 152.71875 C 278.765625 152.222656 280.425781 151.726562 281.964844 150.945312 C 282.296875 150.777344 282.601562 150.589844 282.933594 150.421875 C 283.691406 149.996094 284.402344 149.59375 285.160156 149.378906 C 285.539062 149.261719 285.945312 149.214844 286.296875 149.261719 C 286.308594 149.261719 286.316406 149.265625 286.324219 149.265625 C 286.144531 149.359375 285.953125 149.4375 285.773438 149.539062 C 285.21875 149.851562 284.675781 150.191406 284.160156 150.566406 C 283.648438 150.941406 283.011719 151.367188 282.667969 151.910156 C 282.503906 152.164062 282.777344 152.546875 283.074219 152.441406 C 283.648438 152.234375 284.179688 151.800781 284.695312 151.480469 C 285.238281 151.144531 285.785156 150.820312 286.347656 150.515625 C 286.890625 150.222656 287.441406 149.941406 288.007812 149.6875 C 288.320312 149.550781 288.65625 149.417969 288.976562 149.269531 C 288.984375 149.265625 288.992188 149.265625 289 149.261719 C 289.664062 149.097656 290.492188 149 291.203125 149.378906 C 291.4375 149.5 291.535156 149.617188 291.558594 149.664062 C 291.535156 149.734375 291.390625 149.902344 291.226562 150.113281 L 291.058594 150.28125 C 291.039062 150.304688 291.039062 150.324219 291.039062 150.347656 C 289.523438 150.410156 288.105469 151.214844 286.789062 151.960938 C 285.785156 152.53125 284.78125 153.140625 283.660156 153.46875 C 282.480469 153.8125 281.277344 153.753906 280.074219 153.605469 C 277.980469 153.347656 275.980469 153.050781 273.878906 153.386719 C 271.800781 153.714844 269.90625 154.507812 268.121094 155.59375 C 267.738281 155.824219 268.070312 156.371094 268.464844 156.183594 C 270.460938 155.246094 272.667969 154.757812 274.867188 154.671875 C 276.972656 154.589844 278.992188 155.105469 281.082031 155.21875 C 283.042969 155.332031 284.753906 154.75 286.457031 153.828125 C 288.121094 152.929688 289.707031 152.132812 291.46875 151.519531 C 291.519531 151.523438 291.574219 151.535156 291.628906 151.535156 C 292.316406 151.558594 292.480469 151.796875 292.550781 151.867188 C 292.835938 152.246094 292.648438 152.933594 292.386719 153.40625 Z M 210.234375 172.269531 C 210.316406 172.613281 210.074219 172.863281 209.753906 172.898438 C 208.980469 172.988281 208.375 172.4375 207.683594 172.15625 C 207.082031 171.910156 206.4375 171.75 205.785156 171.746094 C 205.242188 171.746094 204.679688 171.855469 204.179688 172.089844 C 203.914062 172.214844 203.652344 172.367188 203.410156 172.535156 C 203.167969 172.703125 202.960938 172.949219 202.660156 173.011719 C 202.289062 173.089844 202.007812 172.851562 201.972656 172.488281 C 201.929688 172.070312 202.265625 171.679688 202.527344 171.390625 C 202.78125 171.113281 203.097656 170.875 203.429688 170.703125 C 204.128906 170.34375 204.894531 170.160156 205.679688 170.140625 C 206.542969 170.121094 207.410156 170.320312 208.207031 170.644531 C 209.007812 170.972656 210.003906 171.347656 210.234375 172.269531 Z M 180.714844 172.644531 C 180.066406 172.902344 179.449219 172.277344 178.847656 172.066406 C 178.265625 171.863281 177.664062 171.738281 177.046875 171.734375 C 176.417969 171.726562 175.828125 171.800781 175.21875 171.960938 C 174.914062 172.042969 174.605469 172.132812 174.308594 172.246094 C 174.019531 172.355469 173.75 172.523438 173.453125 172.601562 C 173.101562 172.6875 172.796875 172.308594 172.980469 171.988281 C 173.34375 171.363281 174.144531 170.90625 174.789062 170.628906 C 175.488281 170.324219 176.28125 170.148438 177.046875 170.144531 C 177.820312 170.136719 178.609375 170.265625 179.332031 170.53125 C 179.71875 170.671875 180.097656 170.839844 180.457031 171.042969 C 180.875 171.285156 181.175781 171.546875 181.15625 172.0625 C 181.148438 172.351562 180.972656 172.539062 180.714844 172.644531 Z M 203.523438 190.433594 C 203.660156 190.847656 203.667969 191.625 203.117188 191.75 C 202.644531 191.855469 202.257812 191.421875 202.054688 191.050781 C 201.992188 190.9375 201.929688 190.820312 201.867188 190.699219 C 201.484375 191.109375 201.015625 191.464844 200.597656 191.785156 C 199.824219 192.382812 198.996094 192.902344 198.117188 193.320312 C 196.390625 194.140625 194.527344 194.617188 192.617188 194.6875 C 190.574219 194.761719 188.511719 194.359375 186.632812 193.554688 C 185.132812 192.910156 183.066406 191.851562 182.429688 190.203125 C 182.371094 190.265625 182.3125 190.324219 182.257812 190.390625 C 182.21875 190.4375 182.183594 190.484375 182.144531 190.53125 C 182.140625 190.535156 182.140625 190.535156 182.136719 190.539062 C 182.132812 190.542969 182.132812 190.546875 182.128906 190.550781 C 182.121094 190.558594 182.117188 190.5625 182.113281 190.570312 C 182.117188 190.5625 182.113281 190.566406 182.121094 190.5625 C 182.101562 190.585938 182.082031 190.613281 182.0625 190.640625 C 181.9375 190.808594 181.8125 190.976562 181.679688 191.136719 C 181.683594 191.128906 181.613281 191.214844 181.613281 191.210938 C 181.667969 191.132812 181.671875 191.121094 181.625 191.1875 C 181.621094 191.195312 181.613281 191.199219 181.609375 191.207031 C 181.507812 191.34375 181.417969 191.4375 181.277344 191.535156 C 181.179688 191.601562 181.339844 191.449219 181.257812 191.554688 C 181.238281 191.582031 181.210938 191.605469 181.191406 191.628906 C 181.113281 191.707031 181.027344 191.789062 180.925781 191.832031 C 180.652344 191.945312 180.332031 191.800781 180.253906 191.507812 C 180.214844 191.371094 180.25 191.203125 180.273438 191.066406 C 180.28125 191.03125 180.296875 190.917969 180.285156 191.058594 C 180.289062 191.027344 180.289062 190.996094 180.289062 190.96875 C 180.304688 190.792969 180.335938 190.667969 180.410156 190.503906 C 180.421875 190.480469 180.425781 190.449219 180.425781 190.457031 C 180.449219 190.398438 180.472656 190.34375 180.496094 190.289062 C 180.648438 189.96875 180.875 189.6875 181.101562 189.414062 C 181.304688 189.160156 181.527344 188.921875 181.773438 188.707031 C 182.035156 188.472656 182.3125 188.25 182.617188 188.066406 C 182.761719 187.976562 182.914062 187.90625 183.074219 187.835938 C 183.21875 187.773438 183.332031 187.730469 183.484375 187.710938 C 183.5625 187.703125 183.632812 187.714844 183.707031 187.707031 C 184.066406 187.671875 184.363281 188.171875 184.140625 188.460938 C 184.058594 188.566406 184.027344 188.679688 183.929688 188.78125 C 183.871094 188.839844 183.800781 188.890625 183.742188 188.949219 C 183.617188 189.0625 183.488281 189.171875 183.363281 189.285156 C 183.328125 189.316406 183.296875 189.351562 183.261719 189.382812 C 183.933594 189.882812 184.523438 190.488281 185.21875 190.960938 C 185.949219 191.453125 186.730469 191.878906 187.546875 192.203125 C 189.210938 192.855469 190.992188 193.152344 192.777344 193.066406 C 194.535156 192.984375 196.277344 192.488281 197.832031 191.660156 C 198.554688 191.273438 199.25 190.824219 199.886719 190.304688 C 200.261719 189.992188 200.605469 189.660156 200.972656 189.359375 C 200.96875 189.355469 200.964844 189.347656 200.957031 189.34375 C 200.886719 189.253906 200.816406 189.164062 200.75 189.074219 C 200.746094 189.070312 200.75 189.074219 200.75 189.074219 C 200.730469 189.050781 200.710938 189.027344 200.695312 189.007812 C 200.648438 188.945312 200.597656 188.882812 200.550781 188.824219 C 200.550781 188.824219 200.554688 188.828125 200.554688 188.832031 C 200.515625 188.769531 200.460938 188.710938 200.414062 188.65625 C 200.261719 188.472656 200.15625 188.304688 200.132812 188.058594 C 200.113281 187.851562 200.304688 187.625 200.496094 187.578125 C 200.898438 187.484375 201.324219 187.753906 201.644531 187.972656 C 201.953125 188.183594 202.230469 188.425781 202.464844 188.710938 C 202.882812 189.222656 203.3125 189.804688 203.523438 190.433594 Z M 182.128906 190.550781 C 182.132812 190.546875 182.136719 190.539062 182.144531 190.53125 C 182.171875 190.496094 182.203125 190.476562 182.121094 190.5625 C 182.121094 190.558594 182.125 190.554688 182.128906 190.550781 Z M 182.128906 190.550781 " fill-opacity="1" fill-rule="nonzero"/></g><g clip-path="url(#8126906b84)"><path fill="#efefef" d="M 150.910156 163.117188 L 226.835938 163.117188 L 226.835938 175.257812 L 150.910156 175.257812 Z M 150.910156 163.117188 " fill-opacity="1" fill-rule="nonzero"/></g><g clip-path="url(#8394d6a7df)"><path fill="#95b7c8" d="M 30.582031 198.375 C 30.925781 198.71875 31.484375 198.71875 31.828125 198.375 L 35.261719 194.945312 C 35.605469 194.597656 35.605469 194.042969 35.261719 193.695312 L 31.828125 190.265625 C 31.484375 189.921875 30.925781 189.921875 30.582031 190.265625 L 27.152344 193.695312 C 26.804688 194.042969 26.804688 194.597656 27.152344 194.945312 Z M 35.886719 203.679688 C 36.230469 204.023438 36.789062 204.023438 37.132812 203.679688 L 40.566406 200.246094 C 40.910156 199.902344 40.910156 199.34375 40.566406 199 L 37.132812 195.566406 C 36.789062 195.222656 36.230469 195.222656 35.886719 195.566406 L 32.453125 199 C 32.109375 199.34375 32.109375 199.902344 32.453125 200.246094 Z M 35.261719 204.300781 L 31.828125 200.871094 C 31.484375 200.527344 30.925781 200.527344 30.582031 200.871094 L 27.152344 204.300781 C 26.804688 204.648438 26.804688 205.203125 27.152344 205.550781 L 30.582031 208.980469 C 30.925781 209.324219 31.484375 209.324219 31.828125 208.980469 L 35.261719 205.550781 C 35.605469 205.203125 35.605469 204.648438 35.261719 204.300781 Z M 29.957031 199 L 26.527344 195.566406 C 26.183594 195.222656 25.625 195.222656 25.28125 195.566406 L 21.847656 199 C 21.503906 199.34375 21.503906 199.902344 21.847656 200.246094 L 25.28125 203.679688 C 25.625 204.023438 26.183594 204.023438 26.527344 203.679688 L 29.957031 200.246094 C 30.304688 199.902344 30.304688 199.34375 29.957031 199 Z M 29.957031 199 " fill-opacity="1" fill-rule="nonzero"/></g><path fill="#ffffff" d="M 29.957031 199 L 28.1875 197.230469 C 27.667969 197.886719 27.351562 198.71875 27.351562 199.621094 C 27.351562 200.527344 27.667969 201.359375 28.1875 202.015625 L 29.957031 200.246094 C 30.304688 199.902344 30.304688 199.34375 29.957031 199 Z M 33.601562 202.640625 L 31.828125 200.871094 C 31.484375 200.527344 30.925781 200.527344 30.582031 200.871094 L 28.8125 202.640625 C 29.46875 203.164062 30.300781 203.476562 31.207031 203.476562 C 32.113281 203.476562 32.941406 203.164062 33.601562 202.640625 Z M 32.453125 200.246094 L 34.222656 202.015625 C 34.746094 201.359375 35.0625 200.527344 35.0625 199.621094 C 35.0625 198.71875 34.746094 197.886719 34.222656 197.230469 L 32.453125 199 C 32.109375 199.34375 32.109375 199.902344 32.453125 200.246094 Z M 31.828125 198.375 L 33.601562 196.605469 C 32.941406 196.082031 32.113281 195.769531 31.207031 195.769531 C 30.300781 195.769531 29.46875 196.082031 28.8125 196.605469 L 30.582031 198.375 C 30.925781 198.71875 31.484375 198.71875 31.828125 198.375 Z M 31.828125 198.375 " fill-opacity="1" fill-rule="nonzero"/><path fill="#bbddf5" d="M 33.960938 199.621094 C 33.960938 199.988281 33.890625 200.339844 33.75 200.675781 C 33.609375 201.015625 33.410156 201.3125 33.152344 201.570312 C 32.894531 201.828125 32.597656 202.027344 32.261719 202.167969 C 31.921875 202.304688 31.570312 202.375 31.207031 202.375 C 30.839844 202.375 30.488281 202.304688 30.152344 202.167969 C 29.816406 202.027344 29.515625 201.828125 29.257812 201.570312 C 29 201.3125 28.800781 201.015625 28.664062 200.675781 C 28.523438 200.339844 28.453125 199.988281 28.453125 199.621094 C 28.453125 199.257812 28.523438 198.90625 28.664062 198.570312 C 28.800781 198.230469 29 197.933594 29.257812 197.675781 C 29.515625 197.417969 29.816406 197.21875 30.152344 197.078125 C 30.488281 196.941406 30.839844 196.871094 31.207031 196.871094 C 31.570312 196.871094 31.921875 196.941406 32.261719 197.078125 C 32.597656 197.21875 32.894531 197.417969 33.152344 197.675781 C 33.410156 197.933594 33.609375 198.230469 33.75 198.570312 C 33.890625 198.90625 33.960938 199.257812 33.960938 199.621094 Z M 33.960938 199.621094 " fill-opacity="1" fill-rule="nonzero"/><g fill="#303030" fill-opacity="1"><g transform="translate(104.351036, 330.750331)"><g><path d="M 16.875 8.09375 C 16.46875 7.90625 16.320312 7.609375 16.4375 7.203125 C 16.539062 6.847656 16.679688 6.335938 16.859375 5.671875 C 17.046875 5.003906 17.269531 4.1875 17.53125 3.21875 C 17.632812 2.800781 17.5 2.503906 17.125 2.328125 L 10.75 -0.734375 C 10.375 -0.921875 10.050781 -0.84375 9.78125 -0.5 C 9.195312 0.3125 8.703125 0.992188 8.296875 1.546875 C 7.890625 2.109375 7.570312 2.539062 7.34375 2.84375 C 7.125 3.1875 6.8125 3.265625 6.40625 3.078125 L 2.296875 1.109375 C 2.054688 0.992188 1.90625 0.8125 1.84375 0.5625 C 1.789062 0.320312 1.851562 0.113281 2.03125 -0.0625 C 2.613281 -0.800781 3.585938 -2.03125 4.953125 -3.75 C 6.328125 -5.46875 8.050781 -7.65625 10.125 -10.3125 C 12.320312 -13.164062 14.082031 -15.488281 15.40625 -17.28125 C 16.738281 -19.082031 17.628906 -20.3125 18.078125 -20.96875 C 18.328125 -21.3125 18.640625 -21.390625 19.015625 -21.203125 L 27.890625 -16.953125 C 28.285156 -16.753906 28.429688 -16.453125 28.328125 -16.046875 C 28.117188 -15.273438 27.722656 -13.8125 27.140625 -11.65625 C 26.566406 -9.5 25.847656 -6.675781 24.984375 -3.1875 C 24.179688 0.0703125 23.539062 2.78125 23.0625 4.9375 C 22.582031 7.09375 22.253906 8.632812 22.078125 9.5625 C 22.015625 9.789062 21.867188 9.957031 21.640625 10.0625 C 21.421875 10.175781 21.203125 10.179688 20.984375 10.078125 Z M 13.578125 -3.96875 L 17.890625 -1.890625 C 18.109375 -1.785156 18.328125 -1.78125 18.546875 -1.875 C 18.765625 -1.976562 18.90625 -2.148438 18.96875 -2.390625 C 19.101562 -2.898438 19.234375 -3.429688 19.359375 -3.984375 C 19.492188 -4.535156 19.628906 -5.101562 19.765625 -5.6875 C 20.210938 -7.519531 20.613281 -9.179688 20.96875 -10.671875 C 21.320312 -12.160156 21.617188 -13.457031 21.859375 -14.5625 C 21.921875 -14.8125 21.828125 -14.992188 21.578125 -15.109375 C 21.328125 -15.234375 21.113281 -15.195312 20.9375 -15 C 20.25 -14.113281 19.429688 -13.066406 18.484375 -11.859375 C 17.535156 -10.660156 16.484375 -9.3125 15.328125 -7.8125 C 14.953125 -7.351562 14.59375 -6.894531 14.25 -6.4375 C 13.914062 -5.988281 13.585938 -5.550781 13.265625 -5.125 C 13.109375 -4.9375 13.0625 -4.722656 13.125 -4.484375 C 13.1875 -4.253906 13.335938 -4.082031 13.578125 -3.96875 Z M 13.578125 -3.96875 "/></g></g></g><g fill="#303030" fill-opacity="1"><g transform="translate(131.145645, 342.986036)"><g><path d="M 8.859375 -2.484375 C 8.804688 -2.285156 8.820312 -2.085938 8.90625 -1.890625 C 9 -1.703125 9.144531 -1.582031 9.34375 -1.53125 L 16.65625 0.65625 C 16.851562 0.71875 17 0.847656 17.09375 1.046875 C 17.195312 1.242188 17.222656 1.441406 17.171875 1.640625 L 16.421875 4.109375 C 16.367188 4.304688 16.242188 4.457031 16.046875 4.5625 C 15.859375 4.664062 15.664062 4.6875 15.46875 4.625 L 2.625 0.78125 C 2.414062 0.71875 2.257812 0.585938 2.15625 0.390625 C 2.0625 0.203125 2.039062 0.0078125 2.09375 -0.1875 L 9.5 -24.890625 C 9.5625 -25.085938 9.6875 -25.238281 9.875 -25.34375 C 10.0625 -25.445312 10.257812 -25.46875 10.46875 -25.40625 L 14.84375 -24.09375 C 15.0625 -24.019531 15.21875 -23.890625 15.3125 -23.703125 C 15.414062 -23.515625 15.4375 -23.320312 15.375 -23.125 C 15.175781 -22.445312 14.84375 -21.394531 14.375 -19.96875 C 13.90625 -18.550781 13.367188 -16.882812 12.765625 -14.96875 C 12.160156 -13.0625 11.519531 -11.035156 10.84375 -8.890625 C 10.164062 -6.742188 9.503906 -4.609375 8.859375 -2.484375 Z M 8.859375 -2.484375 "/></g></g></g><g fill="#303030" fill-opacity="1"><g transform="translate(152.485324, 349.2682)"><g><path d="M 18.75 -10.828125 C 19.957031 -10.304688 20.847656 -9.582031 21.421875 -8.65625 C 21.992188 -7.726562 22.160156 -6.441406 21.921875 -4.796875 C 21.679688 -3.117188 21.238281 -1.804688 20.59375 -0.859375 C 19.945312 0.078125 19.144531 0.753906 18.1875 1.171875 C 17.226562 1.597656 16.164062 1.828125 15 1.859375 C 13.84375 1.898438 12.628906 1.828125 11.359375 1.640625 L 2.703125 0.390625 C 2.472656 0.359375 2.296875 0.253906 2.171875 0.078125 C 2.054688 -0.0976562 2.015625 -0.285156 2.046875 -0.484375 C 2.203125 -1.347656 2.460938 -2.847656 2.828125 -4.984375 C 3.191406 -7.117188 3.613281 -9.863281 4.09375 -13.21875 C 4.582031 -16.601562 4.957031 -19.367188 5.21875 -21.515625 C 5.476562 -23.660156 5.648438 -25.15625 5.734375 -26 C 5.765625 -26.207031 5.863281 -26.378906 6.03125 -26.515625 C 6.195312 -26.648438 6.394531 -26.703125 6.625 -26.671875 L 15.03125 -25.453125 C 16.28125 -25.273438 17.457031 -25.003906 18.5625 -24.640625 C 19.664062 -24.285156 20.613281 -23.765625 21.40625 -23.078125 C 22.207031 -22.398438 22.785156 -21.515625 23.140625 -20.421875 C 23.503906 -19.335938 23.5625 -17.957031 23.3125 -16.28125 C 23.082031 -14.6875 22.585938 -13.519531 21.828125 -12.78125 C 21.066406 -12.050781 20.070312 -11.609375 18.84375 -11.453125 C 18.675781 -11.421875 18.582031 -11.328125 18.5625 -11.171875 C 18.539062 -11.015625 18.601562 -10.898438 18.75 -10.828125 Z M 14.515625 -21.34375 L 11.953125 -21.71875 C 11.742188 -21.75 11.550781 -21.703125 11.375 -21.578125 C 11.207031 -21.460938 11.109375 -21.300781 11.078125 -21.09375 C 10.960938 -20.289062 10.828125 -19.398438 10.671875 -18.421875 C 10.515625 -17.453125 10.34375 -16.390625 10.15625 -15.234375 C 10.125 -15.023438 10.171875 -14.832031 10.296875 -14.65625 C 10.429688 -14.488281 10.597656 -14.390625 10.796875 -14.359375 L 13.4375 -13.96875 C 14.28125 -13.851562 14.96875 -13.941406 15.5 -14.234375 C 16.039062 -14.535156 16.4375 -14.957031 16.6875 -15.5 C 16.945312 -16.039062 17.125 -16.609375 17.21875 -17.203125 C 17.363281 -18.234375 17.285156 -19.039062 16.984375 -19.625 C 16.691406 -20.207031 16.304688 -20.625 15.828125 -20.875 C 15.359375 -21.132812 14.921875 -21.289062 14.515625 -21.34375 Z M 12.03125 -2.4375 C 12.425781 -2.382812 12.894531 -2.410156 13.4375 -2.515625 C 13.976562 -2.617188 14.472656 -2.910156 14.921875 -3.390625 C 15.367188 -3.867188 15.664062 -4.632812 15.8125 -5.6875 C 15.894531 -6.25 15.890625 -6.828125 15.796875 -7.421875 C 15.703125 -8.015625 15.441406 -8.53125 15.015625 -8.96875 C 14.597656 -9.414062 13.957031 -9.703125 13.09375 -9.828125 L 10.203125 -10.25 C 10.003906 -10.28125 9.816406 -10.226562 9.640625 -10.09375 C 9.460938 -9.96875 9.359375 -9.800781 9.328125 -9.59375 C 9.179688 -8.425781 9.046875 -7.347656 8.921875 -6.359375 C 8.796875 -5.378906 8.675781 -4.492188 8.5625 -3.703125 C 8.53125 -3.492188 8.578125 -3.304688 8.703125 -3.140625 C 8.835938 -2.972656 9.007812 -2.875 9.21875 -2.84375 Z M 12.03125 -2.4375 "/></g></g></g><g fill="#303030" fill-opacity="1"><g transform="translate(179.010437, 352.901998)"><g><path d="M 18.71875 -0.5 C 18.269531 -0.488281 18.003906 -0.6875 17.921875 -1.09375 C 17.859375 -1.457031 17.753906 -1.976562 17.609375 -2.65625 C 17.460938 -3.332031 17.28125 -4.160156 17.0625 -5.140625 C 16.976562 -5.554688 16.726562 -5.757812 16.3125 -5.75 L 9.234375 -5.5625 C 8.816406 -5.550781 8.5625 -5.335938 8.46875 -4.921875 C 8.320312 -3.921875 8.195312 -3.082031 8.09375 -2.40625 C 7.988281 -1.726562 7.90625 -1.203125 7.84375 -0.828125 C 7.800781 -0.410156 7.554688 -0.195312 7.109375 -0.1875 L 2.546875 -0.0625 C 2.285156 -0.0625 2.070312 -0.15625 1.90625 -0.34375 C 1.75 -0.539062 1.703125 -0.753906 1.765625 -0.984375 C 1.953125 -1.910156 2.265625 -3.453125 2.703125 -5.609375 C 3.140625 -7.765625 3.671875 -10.492188 4.296875 -13.796875 C 4.953125 -17.335938 5.457031 -20.207031 5.8125 -22.40625 C 6.175781 -24.613281 6.414062 -26.109375 6.53125 -26.890625 C 6.59375 -27.304688 6.832031 -27.523438 7.25 -27.546875 L 17.09375 -27.796875 C 17.539062 -27.804688 17.804688 -27.609375 17.890625 -27.203125 C 18.046875 -26.421875 18.359375 -24.9375 18.828125 -22.75 C 19.304688 -20.570312 19.957031 -17.734375 20.78125 -14.234375 C 21.550781 -10.972656 22.210938 -8.273438 22.765625 -6.140625 C 23.316406 -4.003906 23.722656 -2.484375 23.984375 -1.578125 C 24.046875 -1.347656 24 -1.128906 23.84375 -0.921875 C 23.695312 -0.722656 23.503906 -0.625 23.265625 -0.625 Z M 10.265625 -9.734375 L 15.0625 -9.859375 C 15.300781 -9.867188 15.492188 -9.960938 15.640625 -10.140625 C 15.796875 -10.328125 15.84375 -10.539062 15.78125 -10.78125 C 15.664062 -11.300781 15.539062 -11.835938 15.40625 -12.390625 C 15.269531 -12.941406 15.132812 -13.503906 15 -14.078125 C 14.550781 -15.921875 14.144531 -17.582031 13.78125 -19.0625 C 13.414062 -20.550781 13.09375 -21.835938 12.8125 -22.921875 C 12.75 -23.179688 12.578125 -23.304688 12.296875 -23.296875 C 12.023438 -23.285156 11.859375 -23.148438 11.796875 -22.890625 C 11.578125 -21.796875 11.316406 -20.5 11.015625 -19 C 10.722656 -17.5 10.410156 -15.816406 10.078125 -13.953125 C 9.953125 -13.367188 9.835938 -12.796875 9.734375 -12.234375 C 9.640625 -11.679688 9.546875 -11.144531 9.453125 -10.625 C 9.410156 -10.375 9.46875 -10.160156 9.625 -9.984375 C 9.789062 -9.804688 10.003906 -9.722656 10.265625 -9.734375 Z M 10.265625 -9.734375 "/></g></g></g><g fill="#303030" fill-opacity="1"><g transform="translate(208.605026, 351.6834)"><g><path d="M 18.109375 -17.578125 C 18.773438 -14.253906 19.335938 -11.53125 19.796875 -9.40625 C 20.265625 -7.289062 20.609375 -5.816406 20.828125 -4.984375 C 20.867188 -4.773438 20.828125 -4.578125 20.703125 -4.390625 C 20.585938 -4.210938 20.425781 -4.101562 20.21875 -4.0625 L 16.15625 -3.25 L 12.171875 -2.4375 C 11.710938 -2.351562 11.414062 -2.523438 11.28125 -2.953125 C 11.019531 -3.722656 10.503906 -5.140625 9.734375 -7.203125 C 8.960938 -9.273438 7.9375 -11.96875 6.65625 -15.28125 C 6.28125 -16.25 5.921875 -17.15625 5.578125 -18 C 5.234375 -18.84375 4.90625 -19.628906 4.59375 -20.359375 C 4.53125 -20.566406 4.40625 -20.632812 4.21875 -20.5625 C 4.03125 -20.5 3.953125 -20.378906 3.984375 -20.203125 C 4.140625 -19.441406 4.300781 -18.625 4.46875 -17.75 C 4.632812 -16.882812 4.816406 -15.953125 5.015625 -14.953125 C 5.679688 -11.628906 6.253906 -8.90625 6.734375 -6.78125 C 7.210938 -4.664062 7.546875 -3.1875 7.734375 -2.34375 C 7.773438 -2.132812 7.738281 -1.941406 7.625 -1.765625 C 7.519531 -1.585938 7.351562 -1.476562 7.125 -1.4375 L 2.6875 -0.53125 C 2.457031 -0.488281 2.253906 -0.53125 2.078125 -0.65625 C 1.910156 -0.78125 1.804688 -0.945312 1.765625 -1.15625 C 1.617188 -2 1.359375 -3.488281 0.984375 -5.625 C 0.609375 -7.769531 0.0859375 -10.503906 -0.578125 -13.828125 C -1.253906 -17.171875 -1.828125 -19.894531 -2.296875 -22 C -2.773438 -24.113281 -3.113281 -25.59375 -3.3125 -26.4375 C -3.34375 -26.632812 -3.300781 -26.820312 -3.1875 -27 C -3.082031 -27.1875 -2.914062 -27.300781 -2.6875 -27.34375 L 2.5625 -28.40625 L 5.34375 -28.96875 C 5.78125 -29.050781 6.078125 -28.890625 6.234375 -28.484375 C 6.492188 -27.734375 7.003906 -26.304688 7.765625 -24.203125 C 8.535156 -22.109375 9.570312 -19.414062 10.875 -16.125 C 11.25 -15.195312 11.609375 -14.300781 11.953125 -13.4375 C 12.296875 -12.570312 12.609375 -11.773438 12.890625 -11.046875 C 12.984375 -10.847656 13.125 -10.78125 13.3125 -10.84375 C 13.5 -10.90625 13.570312 -11.03125 13.53125 -11.21875 C 13.375 -11.976562 13.21875 -12.796875 13.0625 -13.671875 C 12.90625 -14.554688 12.726562 -15.484375 12.53125 -16.453125 C 11.851562 -19.796875 11.273438 -22.519531 10.796875 -24.625 C 10.328125 -26.738281 9.988281 -28.21875 9.78125 -29.0625 C 9.726562 -29.25 9.757812 -29.4375 9.875 -29.625 C 10 -29.8125 10.164062 -29.925781 10.375 -29.96875 L 14.84375 -30.875 C 15.050781 -30.914062 15.242188 -30.875 15.421875 -30.75 C 15.609375 -30.625 15.71875 -30.460938 15.75 -30.265625 C 15.875 -29.410156 16.128906 -27.914062 16.515625 -25.78125 C 16.898438 -23.65625 17.429688 -20.921875 18.109375 -17.578125 Z M 18.109375 -17.578125 "/></g></g></g><g fill="#303030" fill-opacity="1"><g transform="translate(234.59794, 345.852198)"><g><path d="M 7.390625 -3.25 C 7.460938 -3.050781 7.453125 -2.859375 7.359375 -2.671875 C 7.273438 -2.484375 7.125 -2.351562 6.90625 -2.28125 L 2.59375 -0.859375 C 2.375 -0.785156 2.171875 -0.796875 1.984375 -0.890625 C 1.804688 -0.992188 1.679688 -1.144531 1.609375 -1.34375 C 1.367188 -2.175781 0.929688 -3.628906 0.296875 -5.703125 C -0.328125 -7.785156 -1.171875 -10.4375 -2.234375 -13.65625 C -3.304688 -16.894531 -4.203125 -19.53125 -4.921875 -21.5625 C -5.648438 -23.601562 -6.164062 -25.023438 -6.46875 -25.828125 C -6.53125 -26.023438 -6.519531 -26.222656 -6.4375 -26.421875 C -6.351562 -26.617188 -6.203125 -26.753906 -5.984375 -26.828125 L -1.671875 -28.25 C -1.453125 -28.320312 -1.25 -28.300781 -1.0625 -28.1875 C -0.875 -28.082031 -0.75 -27.929688 -0.6875 -27.734375 C -0.4375 -26.921875 0 -25.476562 0.625 -23.40625 C 1.257812 -21.34375 2.113281 -18.691406 3.1875 -15.453125 C 4.25 -12.234375 5.140625 -9.597656 5.859375 -7.546875 C 6.585938 -5.503906 7.097656 -4.070312 7.390625 -3.25 Z M 7.390625 -3.25 "/></g></g></g><g fill="#303030" fill-opacity="1"><g transform="translate(247.423589, 341.925769)"><g><path d="M 16.875 -8.09375 C 16.46875 -7.90625 16.144531 -7.984375 15.90625 -8.328125 C 15.695312 -8.640625 15.382812 -9.070312 14.96875 -9.625 C 14.5625 -10.175781 14.0625 -10.851562 13.46875 -11.65625 C 13.21875 -12.007812 12.90625 -12.097656 12.53125 -11.921875 L 6.15625 -8.859375 C 5.78125 -8.671875 5.632812 -8.363281 5.71875 -7.9375 C 5.988281 -6.976562 6.21875 -6.164062 6.40625 -5.5 C 6.59375 -4.84375 6.726562 -4.332031 6.8125 -3.96875 C 6.945312 -3.5625 6.8125 -3.265625 6.40625 -3.078125 L 2.296875 -1.109375 C 2.054688 -0.992188 1.820312 -0.988281 1.59375 -1.09375 C 1.375 -1.207031 1.25 -1.382812 1.21875 -1.625 C 1.007812 -2.53125 0.660156 -4.0625 0.171875 -6.21875 C -0.304688 -8.375 -0.9375 -11.082031 -1.71875 -14.34375 C -2.5625 -17.84375 -3.269531 -20.671875 -3.84375 -22.828125 C -4.425781 -24.992188 -4.828125 -26.457031 -5.046875 -27.21875 C -5.148438 -27.625 -5.015625 -27.921875 -4.640625 -28.109375 L 4.234375 -32.359375 C 4.628906 -32.554688 4.953125 -32.484375 5.203125 -32.140625 C 5.660156 -31.492188 6.550781 -30.269531 7.875 -28.46875 C 9.207031 -26.664062 10.960938 -24.332031 13.140625 -21.46875 C 15.191406 -18.8125 16.90625 -16.625 18.28125 -14.90625 C 19.65625 -13.1875 20.648438 -11.96875 21.265625 -11.25 C 21.410156 -11.0625 21.453125 -10.84375 21.390625 -10.59375 C 21.335938 -10.351562 21.203125 -10.179688 20.984375 -10.078125 Z M 5.390625 -13.0625 L 9.703125 -15.140625 C 9.921875 -15.242188 10.0625 -15.410156 10.125 -15.640625 C 10.1875 -15.878906 10.144531 -16.097656 10 -16.296875 C 9.675781 -16.722656 9.335938 -17.160156 8.984375 -17.609375 C 8.640625 -18.054688 8.285156 -18.507812 7.921875 -18.96875 C 6.765625 -20.46875 5.71875 -21.820312 4.78125 -23.03125 C 3.84375 -24.238281 3.023438 -25.28125 2.328125 -26.15625 C 2.160156 -26.363281 1.953125 -26.40625 1.703125 -26.28125 C 1.453125 -26.164062 1.351562 -25.976562 1.40625 -25.71875 C 1.65625 -24.625 1.953125 -23.328125 2.296875 -21.828125 C 2.640625 -20.335938 3.035156 -18.675781 3.484375 -16.84375 C 3.609375 -16.257812 3.738281 -15.691406 3.875 -15.140625 C 4.019531 -14.597656 4.160156 -14.070312 4.296875 -13.5625 C 4.347656 -13.3125 4.484375 -13.132812 4.703125 -13.03125 C 4.921875 -12.9375 5.148438 -12.945312 5.390625 -13.0625 Z M 5.390625 -13.0625 "/></g></g></g><g fill="#212121" fill-opacity="1"><g transform="translate(157.733069, 102.120726)"><g><path d="M 8.6875 -2.515625 L 3.046875 -2.515625 L 1.984375 0 L 0.015625 0 L 4.953125 -11.171875 L 6.875 -11.171875 L 11.765625 0 L 9.75 0 Z M 7.96875 -4.203125 L 5.859375 -9.171875 L 3.75 -4.203125 Z M 7.96875 -4.203125 "/></g></g></g><g fill="#212121" fill-opacity="1"><g transform="translate(169.521352, 102.120726)"><g><path d="M 9.015625 -8.5 L 9.015625 -0.828125 C 9.015625 0.378906 8.613281 1.34375 7.8125 2.0625 C 7.019531 2.78125 5.953125 3.140625 4.609375 3.140625 C 3.359375 3.140625 2.179688 2.769531 1.078125 2.03125 L 1.875 0.703125 C 2.695312 1.316406 3.582031 1.625 4.53125 1.625 C 5.34375 1.625 5.988281 1.40625 6.46875 0.96875 C 6.957031 0.53125 7.203125 -0.0507812 7.203125 -0.78125 L 7.203125 -1.859375 C 6.609375 -0.898438 5.671875 -0.421875 4.390625 -0.421875 C 3.242188 -0.421875 2.316406 -0.796875 1.609375 -1.546875 C 0.910156 -2.304688 0.5625 -3.296875 0.5625 -4.515625 C 0.5625 -5.722656 0.90625 -6.695312 1.59375 -7.4375 C 2.289062 -8.175781 3.203125 -8.550781 4.328125 -8.5625 C 5.628906 -8.570312 6.585938 -8.09375 7.203125 -7.125 L 7.203125 -8.5 Z M 4.765625 -1.859375 C 5.472656 -1.859375 6.054688 -2.101562 6.515625 -2.59375 C 6.972656 -3.082031 7.203125 -3.707031 7.203125 -4.46875 C 7.203125 -5.238281 6.972656 -5.863281 6.515625 -6.34375 C 6.066406 -6.832031 5.476562 -7.078125 4.75 -7.078125 C 4.03125 -7.078125 3.441406 -6.832031 2.984375 -6.34375 C 2.523438 -5.863281 2.289062 -5.238281 2.28125 -4.46875 C 2.289062 -3.707031 2.519531 -3.082031 2.96875 -2.59375 C 3.425781 -2.101562 4.023438 -1.859375 4.765625 -1.859375 Z M 4.765625 -1.859375 "/></g></g></g><g fill="#212121" fill-opacity="1"><g transform="translate(179.744251, 102.120726)"><g><path d="M 4.859375 -8.5625 C 6.316406 -8.5625 7.367188 -8.117188 8.015625 -7.234375 C 8.671875 -6.359375 8.941406 -5.128906 8.828125 -3.546875 L 2.40625 -3.546875 C 2.5625 -2.890625 2.875 -2.367188 3.34375 -1.984375 C 3.8125 -1.609375 4.378906 -1.421875 5.046875 -1.421875 C 6.003906 -1.421875 6.800781 -1.75 7.4375 -2.40625 L 8.421875 -1.375 C 7.546875 -0.414062 6.375 0.0625 4.90625 0.0625 C 3.59375 0.0625 2.539062 -0.332031 1.75 -1.125 C 0.957031 -1.914062 0.5625 -2.945312 0.5625 -4.21875 C 0.5625 -5.5 0.957031 -6.539062 1.75 -7.34375 C 2.550781 -8.144531 3.585938 -8.550781 4.859375 -8.5625 Z M 2.375 -4.890625 L 7.234375 -4.890625 C 7.203125 -5.566406 6.972656 -6.101562 6.546875 -6.5 C 6.117188 -6.894531 5.5625 -7.09375 4.875 -7.09375 C 4.195312 -7.09375 3.632812 -6.894531 3.1875 -6.5 C 2.75 -6.101562 2.476562 -5.566406 2.375 -4.890625 Z M 2.375 -4.890625 "/></g></g></g><g fill="#212121" fill-opacity="1"><g transform="translate(189.136535, 102.120726)"><g><path d="M 6.328125 -8.5625 C 7.316406 -8.5625 8.085938 -8.269531 8.640625 -7.6875 C 9.203125 -7.101562 9.484375 -6.300781 9.484375 -5.28125 L 9.484375 0 L 7.65625 0 L 7.65625 -4.78125 C 7.65625 -5.414062 7.472656 -5.914062 7.109375 -6.28125 C 6.742188 -6.644531 6.242188 -6.828125 5.609375 -6.828125 C 4.921875 -6.816406 4.363281 -6.597656 3.9375 -6.171875 C 3.507812 -5.753906 3.257812 -5.203125 3.1875 -4.515625 L 3.1875 0 L 1.359375 0 L 1.359375 -8.5 L 3.1875 -8.5 L 3.1875 -6.859375 C 3.769531 -7.992188 4.816406 -8.5625 6.328125 -8.5625 Z M 6.328125 -8.5625 "/></g></g></g><g fill="#212121" fill-opacity="1"><g transform="translate(199.726819, 102.120726)"><g><path d="M 4.84375 -8.5625 C 6.375 -8.5625 7.546875 -8.097656 8.359375 -7.171875 L 7.34375 -5.984375 C 6.707031 -6.640625 5.898438 -6.960938 4.921875 -6.953125 C 4.179688 -6.953125 3.570312 -6.695312 3.09375 -6.1875 C 2.625 -5.675781 2.390625 -5.019531 2.390625 -4.21875 C 2.390625 -3.425781 2.625 -2.773438 3.09375 -2.265625 C 3.570312 -1.765625 4.179688 -1.515625 4.921875 -1.515625 C 6.003906 -1.515625 6.835938 -1.851562 7.421875 -2.53125 L 8.453125 -1.515625 C 7.648438 -0.460938 6.445312 0.0625 4.84375 0.0625 C 3.570312 0.0625 2.539062 -0.332031 1.75 -1.125 C 0.957031 -1.914062 0.5625 -2.953125 0.5625 -4.234375 C 0.5625 -5.515625 0.957031 -6.554688 1.75 -7.359375 C 2.539062 -8.160156 3.570312 -8.5625 4.84375 -8.5625 Z M 4.84375 -8.5625 "/></g></g></g><g fill="#212121" fill-opacity="1"><g transform="translate(208.735754, 102.120726)"><g><path d="M 8.5625 -8.5 L 4.6875 1.171875 C 4.164062 2.503906 3.25 3.171875 1.9375 3.171875 C 1.195312 3.171875 0.539062 2.929688 -0.03125 2.453125 L 0.75 1.03125 C 1.132812 1.3125 1.503906 1.453125 1.859375 1.453125 C 2.429688 1.453125 2.859375 1.140625 3.140625 0.515625 L 3.4375 -0.125 L -0.078125 -8.5 L 1.828125 -8.5 L 4.359375 -2.0625 L 6.71875 -8.5 Z M 8.5625 -8.5 "/></g></g></g><g clip-path="url(#e35b00f260)"><path fill="#95b7c8" d="M 343.167969 200.324219 C 343.511719 200.667969 344.070312 200.667969 344.417969 200.324219 L 347.847656 196.890625 C 348.191406 196.546875 348.191406 195.988281 347.847656 195.644531 L 344.417969 192.210938 C 344.070312 191.867188 343.511719 191.867188 343.167969 192.210938 L 339.738281 195.644531 C 339.390625 195.988281 339.390625 196.546875 339.738281 196.890625 Z M 348.472656 205.625 C 348.816406 205.96875 349.375 205.96875 349.71875 205.625 L 353.152344 202.195312 C 353.496094 201.851562 353.496094 201.292969 353.152344 200.945312 L 349.71875 197.515625 C 349.375 197.171875 348.816406 197.171875 348.472656 197.515625 L 345.039062 200.945312 C 344.695312 201.292969 344.695312 201.851562 345.039062 202.195312 Z M 347.847656 206.25 L 344.417969 202.816406 C 344.070312 202.472656 343.511719 202.472656 343.167969 202.816406 L 339.738281 206.25 C 339.394531 206.59375 339.394531 207.152344 339.738281 207.496094 L 343.167969 210.929688 C 343.511719 211.273438 344.070312 211.273438 344.417969 210.929688 L 347.847656 207.496094 C 348.191406 207.152344 348.191406 206.59375 347.847656 206.25 Z M 342.542969 200.945312 L 339.113281 197.515625 C 338.769531 197.171875 338.210938 197.171875 337.867188 197.515625 L 334.433594 200.945312 C 334.089844 201.292969 334.089844 201.851562 334.433594 202.195312 L 337.867188 205.625 C 338.210938 205.96875 338.769531 205.96875 339.113281 205.625 L 342.542969 202.195312 C 342.890625 201.851562 342.890625 201.292969 342.542969 200.945312 Z M 342.542969 200.945312 " fill-opacity="1" fill-rule="nonzero"/></g><path fill="#ffffff" d="M 342.542969 200.945312 L 340.773438 199.175781 C 340.253906 199.835938 339.9375 200.664062 339.9375 201.570312 C 339.9375 202.476562 340.253906 203.308594 340.773438 203.964844 L 342.542969 202.195312 C 342.890625 201.851562 342.890625 201.292969 342.542969 200.945312 Z M 346.1875 204.589844 L 344.417969 202.816406 C 344.070312 202.472656 343.511719 202.472656 343.167969 202.816406 L 341.398438 204.589844 C 342.054688 205.109375 342.886719 205.425781 343.792969 205.425781 C 344.699219 205.425781 345.527344 205.109375 346.1875 204.589844 Z M 345.039062 202.195312 L 346.808594 203.964844 C 347.332031 203.308594 347.648438 202.476562 347.648438 201.570312 C 347.648438 200.664062 347.332031 199.835938 346.808594 199.175781 L 345.039062 200.945312 C 344.695312 201.292969 344.695312 201.851562 345.039062 202.195312 Z M 344.417969 200.324219 L 346.1875 198.554688 C 345.527344 198.03125 344.699219 197.714844 343.792969 197.714844 C 342.886719 197.714844 342.054688 198.03125 341.398438 198.554688 L 343.167969 200.324219 C 343.511719 200.667969 344.070312 200.667969 344.417969 200.324219 Z M 344.417969 200.324219 " fill-opacity="1" fill-rule="nonzero"/><path fill="#bbddf5" d="M 346.546875 201.570312 C 346.546875 201.9375 346.476562 202.285156 346.335938 202.625 C 346.195312 202.960938 345.996094 203.257812 345.738281 203.515625 C 345.480469 203.777344 345.183594 203.972656 344.847656 204.113281 C 344.507812 204.253906 344.15625 204.324219 343.792969 204.324219 C 343.425781 204.324219 343.074219 204.253906 342.738281 204.113281 C 342.402344 203.972656 342.105469 203.777344 341.84375 203.515625 C 341.585938 203.257812 341.386719 202.960938 341.25 202.625 C 341.109375 202.285156 341.039062 201.9375 341.039062 201.570312 C 341.039062 201.207031 341.109375 200.855469 341.25 200.515625 C 341.386719 200.179688 341.585938 199.882812 341.84375 199.625 C 342.105469 199.367188 342.402344 199.167969 342.738281 199.027344 C 343.074219 198.886719 343.425781 198.816406 343.792969 198.816406 C 344.15625 198.816406 344.507812 198.886719 344.847656 199.027344 C 345.183594 199.167969 345.480469 199.367188 345.738281 199.625 C 345.996094 199.882812 346.195312 200.179688 346.335938 200.515625 C 346.476562 200.855469 346.546875 201.207031 346.546875 201.570312 Z M 346.546875 201.570312 " fill-opacity="1" fill-rule="nonzero"/></svg>