<svg xmlns="http://www.w3.org/2000/svg" xmlns:xlink="http://www.w3.org/1999/xlink" width="50" zoomAndPan="magnify" viewBox="0 0 37.5 37.499999" height="50" preserveAspectRatio="xMidYMid meet" version="1.0"><defs><g/><clipPath id="66fe8e35d9"><path d="M 0 0 L 37.007812 0 L 37.007812 37.007812 L 0 37.007812 Z M 0 0 " clip-rule="nonzero"/></clipPath><clipPath id="bc844268ad"><path d="M 0 0 L 37.007812 0 L 37.007812 37.007812 L 0 37.007812 Z M 0 0 " clip-rule="nonzero"/></clipPath><clipPath id="733089c6a3"><path d="M 18.503906 0 C 8.285156 0 0 8.285156 0 18.503906 C 0 28.722656 8.285156 37.007812 18.503906 37.007812 C 28.722656 37.007812 37.007812 28.722656 37.007812 18.503906 C 37.007812 8.285156 28.722656 0 18.503906 0 Z M 18.503906 0 " clip-rule="nonzero"/></clipPath><clipPath id="d019292bcf"><path d="M 6.398438 12.433594 L 29.417969 12.433594 L 29.417969 26.996094 L 6.398438 26.996094 Z M 6.398438 12.433594 " clip-rule="nonzero"/></clipPath><clipPath id="9a710ffe3f"><path d="M 11 12.433594 L 24 12.433594 L 24 23 L 11 23 Z M 11 12.433594 " clip-rule="nonzero"/></clipPath><clipPath id="970ab0290e"><path d="M 6.398438 12.433594 L 29.417969 12.433594 L 29.417969 26.996094 L 6.398438 26.996094 Z M 6.398438 12.433594 " clip-rule="nonzero"/></clipPath><clipPath id="9ad65084a3"><path d="M 13.96875 15.78125 L 22.167969 15.78125 L 22.167969 17.09375 L 13.96875 17.09375 Z M 13.96875 15.78125 " clip-rule="nonzero"/></clipPath><clipPath id="f74497230e"><path d="M 0 18.679688 L 2.21875 18.679688 L 2.21875 20.898438 L 0 20.898438 Z M 0 18.679688 " clip-rule="nonzero"/></clipPath><clipPath id="860a744586"><path d="M 0 19 L 2 19 L 2 20.898438 L 0 20.898438 Z M 0 19 " clip-rule="nonzero"/></clipPath><clipPath id="5715823bbb"><path d="M 33.75 18.886719 L 35.96875 18.886719 L 35.96875 21 L 33.75 21 Z M 33.75 18.886719 " clip-rule="nonzero"/></clipPath><clipPath id="700be5265d"><path d="M 34 19 L 35.96875 19 L 35.96875 21 L 34 21 Z M 34 19 " clip-rule="nonzero"/></clipPath></defs><g clip-path="url(#66fe8e35d9)"><path fill="#ffffff" d="M 0 0 L 37.007812 0 L 37.007812 37.007812 L 0 37.007812 Z M 0 0 " fill-opacity="1" fill-rule="nonzero"/><path fill="#ffffff" d="M 0 0 L 37.007812 0 L 37.007812 37.007812 L 0 37.007812 Z M 0 0 " fill-opacity="1" fill-rule="nonzero"/></g><g clip-path="url(#bc844268ad)"><g clip-path="url(#733089c6a3)"><path fill="#acc8d6" d="M 0 0 L 37.007812 0 L 37.007812 37.007812 L 0 37.007812 Z M 0 0 " fill-opacity="1" fill-rule="nonzero"/></g></g><g clip-path="url(#d019292bcf)"><path fill="#efefef" d="M 24.578125 15.398438 C 24.652344 16.167969 24.503906 16.945312 24.289062 17.691406 C 23.800781 19.394531 22.980469 20.980469 22.167969 22.554688 C 21.792969 23.277344 21.699219 24.078125 21.460938 24.839844 C 21.386719 25.085938 21.292969 25.324219 21.171875 25.554688 C 20.875 26.117188 20.089844 26.996094 19.398438 26.464844 C 19.148438 26.273438 19.007812 25.976562 18.878906 25.691406 C 18.671875 25.238281 18.46875 24.789062 18.265625 24.339844 C 18.203125 24.207031 18.128906 24.0625 17.996094 24.003906 C 17.867188 23.949219 17.730469 23.996094 17.613281 24.082031 C 17.546875 24.121094 17.492188 24.175781 17.441406 24.230469 C 17.285156 24.414062 17.191406 24.628906 17.109375 24.851562 C 17.035156 25.0625 16.96875 25.285156 16.867188 25.492188 C 16.6875 25.871094 16.453125 26.242188 16.097656 26.480469 C 15.757812 26.703125 15.316406 26.492188 15.050781 26.230469 C 14.75 25.933594 14.519531 25.492188 14.355469 25.105469 C 13.960938 24.183594 11.703125 20.363281 11.382812 19.375 C 11.097656 18.496094 10.851562 17.589844 10.804688 16.667969 C 10.796875 16.507812 10.796875 16.347656 10.800781 16.191406 C 10.808594 15.972656 10.828125 15.753906 10.863281 15.535156 C 10.921875 15.152344 11.027344 14.773438 11.1875 14.421875 C 11.421875 13.90625 11.753906 13.527344 12.226562 13.214844 C 13.113281 12.628906 14.230469 12.519531 15.199219 12.964844 C 16.074219 13.367188 17.039062 13.746094 18.019531 13.578125 C 18.550781 13.488281 19.007812 13.222656 19.523438 13.066406 C 20.113281 12.890625 20.71875 12.734375 21.335938 12.699219 C 22.140625 12.65625 22.984375 12.835938 23.59375 13.351562 C 23.777344 13.507812 23.929688 13.683594 24.0625 13.878906 C 24.359375 14.324219 24.527344 14.859375 24.578125 15.398438 Z M 29.328125 14.519531 C 29.289062 14.46875 29.230469 14.453125 29.164062 14.449219 C 29.175781 14.441406 29.183594 14.429688 29.191406 14.417969 C 29.214844 14.394531 29.234375 14.367188 29.238281 14.339844 C 29.242188 14.289062 29.199219 14.25 29.15625 14.226562 C 29.03125 14.160156 28.875 14.1875 28.75 14.25 C 28.660156 14.195312 28.539062 14.191406 28.445312 14.21875 C 28.3125 14.257812 28.203125 14.332031 28.082031 14.394531 C 27.914062 14.480469 27.734375 14.535156 27.550781 14.589844 C 27.503906 14.609375 27.496094 14.59375 27.488281 14.59375 C 27.496094 14.484375 27.503906 14.375 27.507812 14.265625 C 27.519531 14.125 27.511719 13.957031 27.394531 13.882812 C 27.285156 13.816406 27.132812 13.871094 27.046875 13.96875 C 26.960938 14.066406 26.917969 14.195312 26.855469 14.308594 C 26.71875 14.5625 26.488281 14.75 26.296875 14.964844 C 26.15625 15.113281 26.035156 15.292969 25.980469 15.488281 C 25.964844 15.492188 25.945312 15.496094 25.929688 15.503906 C 25.71875 15.589844 25.652344 15.8125 25.605469 16.019531 C 25.59375 16.070312 25.585938 16.125 25.601562 16.175781 C 25.621094 16.234375 25.667969 16.277344 25.71875 16.308594 C 25.859375 16.410156 26.027344 16.464844 26.199219 16.492188 C 26.367188 16.523438 26.542969 16.523438 26.714844 16.519531 C 26.957031 16.511719 27.21875 16.488281 27.402344 16.332031 C 27.542969 16.214844 27.621094 16.039062 27.691406 15.871094 C 27.710938 15.832031 27.734375 15.785156 27.742188 15.746094 C 27.753906 15.742188 27.765625 15.734375 27.773438 15.730469 C 27.878906 15.675781 27.988281 15.625 28.09375 15.570312 C 28.304688 15.460938 28.515625 15.355469 28.726562 15.246094 C 28.957031 15.132812 29.199219 15 29.320312 14.773438 C 29.359375 14.695312 29.378906 14.59375 29.328125 14.519531 Z M 10.472656 22.171875 C 10.429688 22.082031 10.367188 22 10.285156 21.949219 C 10.183594 21.886719 10.09375 21.898438 9.984375 21.933594 C 9.867188 21.964844 9.753906 22.007812 9.644531 22.054688 C 9.617188 22.066406 9.589844 22.082031 9.558594 22.09375 C 9.546875 22.089844 9.535156 22.089844 9.523438 22.085938 C 9.214844 22.027344 8.890625 22.011719 8.601562 21.875 C 8.472656 21.816406 8.355469 21.734375 8.214844 21.703125 C 8.074219 21.675781 7.90625 21.722656 7.851562 21.855469 C 7.796875 22 7.902344 22.152344 8.003906 22.269531 C 8.078125 22.359375 8.15625 22.453125 8.234375 22.542969 C 8.226562 22.546875 8.21875 22.550781 8.210938 22.554688 C 8.199219 22.5625 8.191406 22.570312 8.179688 22.578125 C 7.984375 22.648438 7.789062 22.71875 7.582031 22.753906 C 7.4375 22.78125 7.289062 22.785156 7.152344 22.839844 C 7.046875 22.878906 6.945312 22.957031 6.902344 23.0625 C 6.75 23.09375 6.597656 23.171875 6.527344 23.308594 C 6.503906 23.355469 6.496094 23.421875 6.53125 23.460938 C 6.554688 23.484375 6.589844 23.496094 6.621094 23.503906 C 6.636719 23.503906 6.652344 23.507812 6.667969 23.511719 C 6.613281 23.554688 6.570312 23.609375 6.570312 23.679688 C 6.570312 23.824219 6.742188 23.921875 6.867188 23.941406 C 7.046875 23.96875 7.234375 23.929688 7.410156 23.902344 C 7.871094 23.832031 8.339844 23.835938 8.796875 23.757812 C 9.019531 23.71875 9.242188 23.660156 9.445312 23.566406 C 9.503906 23.597656 9.566406 23.613281 9.632812 23.617188 C 9.742188 23.621094 9.851562 23.589844 9.953125 23.554688 C 10.242188 23.457031 10.488281 23.292969 10.550781 22.976562 C 10.578125 22.835938 10.570312 22.6875 10.554688 22.546875 C 10.542969 22.417969 10.523438 22.289062 10.472656 22.171875 Z M 10.472656 22.171875 " fill-opacity="1" fill-rule="nonzero"/></g><path fill="#ffffff" d="M 22.320312 14.0625 C 22.296875 14.042969 22.25 14.019531 22.320312 14.0625 Z M 22.320312 14.0625 " fill-opacity="1" fill-rule="nonzero"/><g clip-path="url(#9a710ffe3f)"><path fill="#ffffff" d="M 21.242188 13.535156 C 21.117188 13.449219 21.105469 13.277344 21.242188 13.191406 C 21.371094 13.109375 21.535156 13.113281 21.683594 13.101562 C 21.808594 13.089844 21.925781 13.082031 22.050781 13.089844 C 22.351562 13.113281 22.636719 13.183594 22.890625 13.347656 C 23.125 13.496094 23.335938 13.703125 23.46875 13.949219 C 23.507812 14.023438 23.546875 14.105469 23.570312 14.1875 C 23.59375 14.273438 23.59375 14.378906 23.570312 14.460938 C 23.558594 14.511719 23.527344 14.558594 23.515625 14.609375 L 23.527344 14.566406 C 23.511719 14.632812 23.476562 14.6875 23.429688 14.734375 C 23.386719 14.777344 23.324219 14.820312 23.265625 14.832031 C 23.152344 14.859375 23.03125 14.835938 22.941406 14.765625 C 22.820312 14.703125 22.730469 14.609375 22.664062 14.480469 C 22.628906 14.410156 22.582031 14.347656 22.539062 14.28125 C 22.527344 14.269531 22.515625 14.257812 22.507812 14.246094 C 22.476562 14.210938 22.441406 14.179688 22.410156 14.148438 C 22.382812 14.117188 22.351562 14.089844 22.320312 14.0625 C 22.324219 14.066406 22.332031 14.070312 22.339844 14.074219 C 22.324219 14.066406 22.308594 14.054688 22.292969 14.042969 C 22.128906 13.925781 21.960938 13.824219 21.78125 13.738281 C 21.773438 13.734375 21.769531 13.730469 21.765625 13.730469 C 21.765625 13.730469 21.765625 13.730469 21.757812 13.726562 C 21.71875 13.710938 21.679688 13.695312 21.636719 13.675781 C 21.667969 13.691406 21.636719 13.675781 21.621094 13.671875 C 21.597656 13.664062 21.570312 13.65625 21.546875 13.648438 C 21.441406 13.617188 21.328125 13.597656 21.242188 13.535156 Z M 23.773438 15.894531 C 23.699219 15.675781 23.335938 15.691406 23.351562 15.949219 C 23.429688 17.105469 22.648438 18.132812 22.113281 19.085938 C 21.828125 19.59375 21.574219 20.117188 21.375 20.660156 C 21.273438 20.941406 21.167969 21.234375 21.117188 21.527344 C 21.0625 21.835938 21.117188 22.097656 21.164062 22.402344 C 21.195312 22.628906 21.511719 22.621094 21.613281 22.460938 C 21.785156 22.195312 21.945312 21.980469 22.058594 21.683594 C 22.164062 21.398438 22.261719 21.113281 22.375 20.832031 C 22.601562 20.277344 22.886719 19.765625 23.175781 19.242188 C 23.746094 18.203125 24.1875 17.0625 23.773438 15.894531 Z M 14.824219 13.285156 C 14.792969 13.238281 14.761719 13.203125 14.722656 13.167969 C 14.664062 13.121094 14.601562 13.085938 14.53125 13.054688 C 14.363281 12.972656 14.175781 12.953125 13.988281 12.953125 C 13.6875 12.953125 13.375 13.003906 13.097656 13.117188 C 12.585938 13.320312 12.183594 13.703125 11.90625 14.167969 C 11.800781 14.339844 12.023438 14.597656 12.199219 14.464844 C 12.554688 14.191406 12.917969 14.058594 13.347656 13.953125 C 13.40625 13.941406 13.46875 13.925781 13.527344 13.914062 C 13.558594 13.910156 13.589844 13.90625 13.621094 13.898438 C 13.625 13.898438 13.628906 13.894531 13.632812 13.894531 C 13.632812 13.894531 13.632812 13.894531 13.636719 13.894531 C 13.761719 13.882812 13.886719 13.871094 14.007812 13.871094 C 14.160156 13.871094 14.300781 13.875 14.449219 13.847656 C 14.472656 13.847656 14.476562 13.84375 14.460938 13.84375 C 14.433594 13.839844 14.449219 13.835938 14.503906 13.835938 C 14.554688 13.828125 14.589844 13.820312 14.640625 13.796875 C 14.710938 13.765625 14.753906 13.714844 14.8125 13.667969 C 14.90625 13.589844 14.894531 13.460938 14.851562 13.363281 C 14.878906 13.421875 14.839844 13.316406 14.824219 13.285156 Z M 16.667969 14.515625 C 16.660156 14.515625 16.652344 14.515625 16.644531 14.515625 C 16.628906 14.519531 16.613281 14.523438 16.597656 14.523438 C 16.621094 14.519531 16.644531 14.515625 16.667969 14.515625 Z M 16.789062 14.066406 C 16.777344 14.058594 16.769531 14.046875 16.757812 14.039062 C 16.734375 14.023438 16.710938 14.011719 16.683594 14.003906 C 16.742188 14.023438 16.730469 14.019531 16.652344 13.988281 C 16.613281 13.972656 16.574219 13.964844 16.535156 13.953125 C 16.492188 13.941406 16.453125 13.921875 16.414062 13.914062 C 16.375 13.902344 16.332031 13.894531 16.292969 13.878906 C 16.289062 13.878906 16.285156 13.875 16.277344 13.875 C 16.261719 13.867188 16.242188 13.855469 16.222656 13.847656 C 16.191406 13.832031 16.160156 13.820312 16.125 13.808594 C 16.121094 13.804688 16.125 13.804688 16.121094 13.804688 C 16.117188 13.804688 16.113281 13.800781 16.109375 13.800781 C 16.058594 13.777344 16.011719 13.746094 15.960938 13.734375 C 15.953125 13.730469 15.953125 13.730469 15.949219 13.730469 C 15.945312 13.730469 15.941406 13.726562 15.933594 13.722656 C 15.917969 13.714844 15.898438 13.703125 15.882812 13.691406 C 15.816406 13.648438 15.722656 13.671875 15.675781 13.734375 C 15.621094 13.800781 15.636719 13.878906 15.6875 13.945312 C 15.691406 13.949219 15.710938 13.976562 15.714844 13.980469 C 15.722656 13.992188 15.734375 14.007812 15.742188 14.019531 C 15.769531 14.066406 15.804688 14.105469 15.84375 14.140625 C 15.910156 14.207031 15.980469 14.265625 16.0625 14.316406 C 16.144531 14.367188 16.222656 14.417969 16.3125 14.453125 C 16.351562 14.46875 16.390625 14.484375 16.433594 14.496094 C 16.453125 14.503906 16.472656 14.507812 16.492188 14.511719 C 16.546875 14.523438 16.59375 14.523438 16.644531 14.515625 C 16.667969 14.511719 16.695312 14.515625 16.71875 14.503906 C 16.761719 14.5 16.804688 14.488281 16.84375 14.46875 C 16.96875 14.402344 16.976562 14.230469 16.886719 14.132812 C 16.855469 14.101562 16.824219 14.082031 16.789062 14.066406 Z M 16.789062 14.066406 " fill-opacity="1" fill-rule="nonzero"/></g><path fill="#f2bddb" d="M 20.523438 17.621094 C 20.585938 17.636719 20.648438 17.65625 20.695312 17.699219 C 20.746094 17.746094 20.769531 17.835938 20.710938 17.882812 C 20.660156 17.925781 20.609375 17.964844 20.542969 17.984375 C 20.335938 18.042969 20.105469 18.066406 19.910156 17.972656 C 19.847656 17.941406 19.785156 17.890625 19.789062 17.820312 C 19.789062 17.753906 19.855469 17.703125 19.914062 17.671875 C 20.09375 17.585938 20.332031 17.582031 20.523438 17.621094 Z M 15.941406 17.621094 C 15.878906 17.636719 15.816406 17.65625 15.773438 17.699219 C 15.722656 17.746094 15.699219 17.835938 15.753906 17.882812 C 15.804688 17.925781 15.855469 17.964844 15.921875 17.984375 C 16.128906 18.042969 16.363281 18.066406 16.558594 17.972656 C 16.617188 17.941406 16.679688 17.890625 16.679688 17.820312 C 16.679688 17.753906 16.613281 17.703125 16.550781 17.671875 C 16.371094 17.585938 16.132812 17.582031 15.941406 17.621094 Z M 15.941406 17.621094 " fill-opacity="1" fill-rule="nonzero"/><g clip-path="url(#970ab0290e)"><path fill="#303030" d="M 29.394531 14.472656 C 29.371094 14.441406 29.339844 14.414062 29.304688 14.398438 C 29.3125 14.382812 29.316406 14.367188 29.320312 14.347656 C 29.328125 14.269531 29.277344 14.195312 29.191406 14.152344 C 29.066406 14.089844 28.910156 14.09375 28.75 14.15625 C 28.65625 14.117188 28.535156 14.109375 28.421875 14.140625 C 28.320312 14.167969 28.230469 14.21875 28.140625 14.269531 C 28.113281 14.285156 28.078125 14.304688 28.046875 14.320312 C 27.898438 14.398438 27.742188 14.445312 27.578125 14.492188 L 27.59375 14.273438 C 27.601562 14.109375 27.59375 13.910156 27.4375 13.8125 C 27.285156 13.71875 27.089844 13.796875 26.984375 13.917969 C 26.917969 13.992188 26.875 14.078125 26.832031 14.167969 C 26.816406 14.203125 26.800781 14.234375 26.78125 14.269531 C 26.6875 14.445312 26.546875 14.589844 26.394531 14.738281 C 26.34375 14.792969 26.285156 14.847656 26.234375 14.910156 C 26.078125 15.078125 25.972656 15.25 25.914062 15.421875 C 25.910156 15.425781 25.90625 15.425781 25.898438 15.425781 C 25.660156 15.527344 25.578125 15.761719 25.527344 16 C 25.511719 16.0625 25.5 16.132812 25.523438 16.203125 C 25.550781 16.285156 25.621094 16.34375 25.667969 16.375 C 25.746094 16.429688 25.832031 16.472656 25.925781 16.507812 C 25.859375 16.640625 25.792969 16.773438 25.71875 16.902344 C 25.441406 17.40625 25.128906 17.890625 24.734375 18.316406 C 24.492188 18.582031 24.222656 18.820312 23.925781 19.019531 C 24.09375 18.589844 24.242188 18.152344 24.371094 17.710938 C 24.535156 17.136719 24.742188 16.265625 24.660156 15.390625 C 24.605469 14.808594 24.421875 14.273438 24.132812 13.835938 C 23.996094 13.628906 23.832031 13.441406 23.648438 13.289062 C 23.078125 12.804688 22.253906 12.570312 21.332031 12.617188 C 20.683594 12.652344 20.066406 12.816406 19.5 12.988281 C 19.292969 13.050781 19.089844 13.132812 18.898438 13.207031 C 18.601562 13.332031 18.320312 13.445312 18.003906 13.5 C 17.023438 13.664062 16.0625 13.273438 15.234375 12.890625 C 14.246094 12.4375 13.109375 12.53125 12.183594 13.144531 C 11.6875 13.472656 11.347656 13.867188 11.113281 14.386719 C 10.871094 14.917969 10.738281 15.523438 10.71875 16.191406 C 10.714844 16.34375 10.714844 16.507812 10.722656 16.671875 C 10.773438 17.652344 11.042969 18.601562 11.304688 19.402344 C 11.375 19.617188 11.53125 19.960938 11.742188 20.382812 C 11.710938 20.554688 11.667969 20.722656 11.613281 20.886719 C 11.5 21.242188 11.316406 21.582031 11.066406 21.855469 C 10.941406 21.992188 10.804688 22.113281 10.644531 22.210938 C 10.625 22.222656 10.605469 22.234375 10.582031 22.242188 C 10.574219 22.207031 10.5625 22.171875 10.546875 22.136719 C 10.496094 22.027344 10.417969 21.9375 10.328125 21.878906 C 10.191406 21.796875 10.066406 21.820312 9.960938 21.855469 C 9.839844 21.886719 9.722656 21.929688 9.613281 21.980469 C 9.589844 21.988281 9.570312 21.996094 9.550781 22.007812 L 9.539062 22.003906 C 9.457031 21.988281 9.371094 21.976562 9.285156 21.964844 C 9.054688 21.929688 8.835938 21.894531 8.636719 21.804688 C 8.601562 21.785156 8.5625 21.765625 8.527344 21.746094 C 8.433594 21.695312 8.339844 21.648438 8.230469 21.625 C 8.0625 21.589844 7.84375 21.648438 7.773438 21.824219 C 7.703125 22.011719 7.828125 22.1875 7.9375 22.320312 L 8.105469 22.515625 C 7.921875 22.582031 7.75 22.644531 7.566406 22.675781 C 7.527344 22.679688 7.488281 22.683594 7.445312 22.691406 C 7.339844 22.707031 7.226562 22.722656 7.121094 22.761719 C 7 22.808594 6.902344 22.890625 6.84375 22.988281 C 6.664062 23.035156 6.523438 23.136719 6.457031 23.269531 C 6.410156 23.363281 6.414062 23.457031 6.472656 23.515625 C 6.488281 23.535156 6.5 23.542969 6.519531 23.554688 C 6.5 23.59375 6.488281 23.636719 6.488281 23.679688 C 6.488281 23.878906 6.703125 24 6.855469 24.023438 C 6.902344 24.03125 6.949219 24.03125 6.996094 24.03125 C 7.117188 24.03125 7.234375 24.015625 7.347656 23.996094 L 7.425781 23.984375 C 7.636719 23.953125 7.859375 23.933594 8.070312 23.917969 C 8.316406 23.898438 8.566406 23.878906 8.8125 23.839844 C 9.046875 23.796875 9.257812 23.738281 9.445312 23.65625 C 9.503906 23.679688 9.566406 23.695312 9.628906 23.699219 C 9.753906 23.699219 9.878906 23.667969 9.980469 23.632812 C 10.359375 23.503906 10.574219 23.292969 10.632812 22.992188 L 10.632812 22.988281 C 10.894531 22.90625 11.148438 22.722656 11.339844 22.558594 C 11.714844 22.242188 11.988281 21.8125 12.179688 21.363281 C 12.1875 21.335938 12.203125 21.308594 12.210938 21.277344 C 12.488281 21.800781 12.796875 22.363281 13.09375 22.898438 C 13.617188 23.855469 14.113281 24.757812 14.277344 25.140625 C 14.503906 25.660156 14.738281 26.039062 14.992188 26.292969 C 15.300781 26.59375 15.773438 26.792969 16.144531 26.550781 C 16.542969 26.285156 16.78125 25.863281 16.945312 25.527344 C 17.019531 25.367188 17.078125 25.203125 17.132812 25.042969 C 17.226562 24.765625 17.316406 24.5 17.503906 24.285156 C 17.625 24.144531 17.8125 24.019531 17.964844 24.082031 C 18.070312 24.125 18.128906 24.246094 18.1875 24.375 L 18.800781 25.722656 C 18.929688 26.003906 19.078125 26.320312 19.347656 26.53125 C 19.507812 26.652344 19.675781 26.710938 19.855469 26.710938 C 19.914062 26.710938 19.976562 26.707031 20.039062 26.691406 C 20.601562 26.566406 21.0625 25.945312 21.242188 25.59375 C 21.5 25.105469 21.628906 24.578125 21.753906 24.066406 C 21.875 23.570312 22 23.058594 22.238281 22.59375 C 22.671875 21.757812 23.109375 20.914062 23.5 20.039062 C 23.585938 20.003906 23.667969 19.96875 23.75 19.929688 C 24.28125 19.679688 24.761719 19.308594 25.164062 18.886719 C 25.59375 18.4375 25.945312 17.917969 26.25 17.382812 C 26.394531 17.128906 26.53125 16.867188 26.660156 16.601562 L 26.71875 16.601562 C 26.984375 16.59375 27.253906 16.5625 27.457031 16.398438 C 27.617188 16.265625 27.695312 16.070312 27.769531 15.902344 L 27.785156 15.871094 C 27.792969 15.847656 27.804688 15.828125 27.8125 15.804688 L 28.765625 15.320312 C 28.972656 15.214844 29.257812 15.070312 29.394531 14.8125 C 29.425781 14.746094 29.441406 14.683594 29.441406 14.625 C 29.441406 14.566406 29.425781 14.515625 29.394531 14.472656 Z M 9.925781 23.476562 C 9.839844 23.507812 9.738281 23.535156 9.636719 23.53125 C 9.613281 23.53125 9.582031 23.527344 9.558594 23.523438 C 9.5625 23.515625 9.566406 23.511719 9.574219 23.507812 C 9.660156 23.417969 9.730469 23.308594 9.777344 23.195312 C 9.828125 23.074219 9.859375 22.945312 9.863281 22.816406 C 9.863281 22.808594 9.863281 22.800781 9.863281 22.792969 C 9.863281 22.722656 9.855469 22.648438 9.839844 22.582031 L 9.839844 22.578125 C 9.828125 22.507812 9.796875 22.449219 9.765625 22.382812 C 9.746094 22.339844 9.6875 22.371094 9.695312 22.410156 C 9.71875 22.53125 9.71875 22.664062 9.707031 22.78125 C 9.699219 22.898438 9.671875 23.027344 9.621094 23.132812 C 9.574219 23.226562 9.515625 23.316406 9.449219 23.394531 C 9.40625 23.445312 9.351562 23.488281 9.304688 23.535156 C 9.148438 23.597656 8.976562 23.640625 8.785156 23.675781 C 8.546875 23.714844 8.300781 23.738281 8.058594 23.753906 C 7.84375 23.769531 7.621094 23.789062 7.398438 23.820312 L 7.320312 23.832031 C 7.175781 23.855469 7.019531 23.882812 6.878906 23.859375 C 6.785156 23.847656 6.652344 23.773438 6.652344 23.679688 C 6.652344 23.667969 6.652344 23.648438 6.679688 23.617188 C 6.882812 23.542969 7.078125 23.460938 7.296875 23.417969 C 7.449219 23.386719 7.605469 23.371094 7.761719 23.347656 C 7.882812 23.332031 8.015625 23.324219 8.125 23.265625 C 8.21875 23.21875 8.28125 23.136719 8.34375 23.050781 C 8.425781 22.941406 8.519531 22.839844 8.625 22.75 C 8.84375 22.5625 9.089844 22.453125 9.355469 22.355469 C 9.394531 22.34375 9.394531 22.273438 9.347656 22.277344 C 9.101562 22.304688 8.863281 22.410156 8.660156 22.546875 C 8.550781 22.617188 8.449219 22.699219 8.359375 22.792969 C 8.269531 22.890625 8.199219 23.027344 8.089844 23.105469 C 7.964844 23.191406 7.773438 23.191406 7.625 23.210938 C 7.480469 23.226562 7.335938 23.246094 7.191406 23.277344 C 7.035156 23.3125 6.847656 23.351562 6.699219 23.441406 C 6.691406 23.433594 6.679688 23.433594 6.667969 23.429688 L 6.640625 23.421875 C 6.628906 23.417969 6.597656 23.410156 6.589844 23.40625 C 6.589844 23.402344 6.585938 23.378906 6.605469 23.34375 C 6.640625 23.269531 6.714844 23.210938 6.808594 23.171875 C 7 23.136719 7.183594 23.082031 7.371094 23.046875 C 7.59375 23.007812 7.816406 22.984375 8.039062 22.949219 C 8.082031 22.945312 8.074219 22.875 8.027344 22.875 C 7.796875 22.878906 7.566406 22.90625 7.335938 22.933594 C 7.253906 22.941406 7.167969 22.953125 7.085938 22.96875 C 7.085938 22.96875 7.085938 22.96875 7.085938 22.964844 C 7.117188 22.945312 7.144531 22.929688 7.179688 22.914062 C 7.269531 22.882812 7.367188 22.871094 7.46875 22.855469 C 7.507812 22.847656 7.554688 22.84375 7.597656 22.835938 C 7.796875 22.804688 7.988281 22.734375 8.175781 22.664062 L 8.226562 22.648438 C 8.226562 22.644531 8.257812 22.625 8.257812 22.621094 C 8.261719 22.621094 8.273438 22.613281 8.277344 22.613281 C 8.296875 22.601562 8.3125 22.578125 8.316406 22.554688 C 8.320312 22.53125 8.3125 22.507812 8.296875 22.488281 L 8.0625 22.214844 C 7.980469 22.113281 7.890625 21.988281 7.929688 21.886719 C 7.957031 21.8125 8.050781 21.78125 8.136719 21.78125 C 8.15625 21.78125 8.175781 21.78125 8.199219 21.785156 C 8.285156 21.804688 8.363281 21.847656 8.449219 21.890625 C 8.488281 21.914062 8.527344 21.933594 8.566406 21.953125 C 8.789062 22.054688 9.027344 22.09375 9.261719 22.125 C 9.34375 22.136719 9.425781 22.152344 9.523438 22.171875 C 9.523438 22.171875 9.542969 22.175781 9.542969 22.175781 C 9.558594 22.179688 9.578125 22.175781 9.59375 22.167969 L 9.679688 22.128906 C 9.78125 22.085938 9.894531 22.042969 10.003906 22.011719 C 10.105469 21.980469 10.167969 21.972656 10.242188 22.019531 C 10.304688 22.058594 10.359375 22.125 10.398438 22.203125 C 10.410156 22.238281 10.425781 22.273438 10.433594 22.308594 C 10.457031 22.390625 10.464844 22.476562 10.472656 22.554688 C 10.484375 22.6875 10.492188 22.828125 10.472656 22.960938 C 10.464844 22.984375 10.460938 23.011719 10.453125 23.03125 C 10.386719 23.234375 10.21875 23.378906 9.925781 23.476562 Z M 23.28125 20.125 C 22.910156 20.941406 22.5 21.734375 22.09375 22.515625 C 21.847656 23 21.71875 23.523438 21.59375 24.027344 C 21.46875 24.527344 21.34375 25.046875 21.097656 25.515625 C 20.875 25.9375 20.4375 26.433594 20.003906 26.527344 C 19.804688 26.574219 19.617188 26.53125 19.449219 26.402344 C 19.210938 26.21875 19.074219 25.917969 18.953125 25.65625 L 18.339844 24.304688 C 18.269531 24.152344 18.1875 23.996094 18.027344 23.929688 C 17.980469 23.910156 17.929688 23.898438 17.875 23.898438 C 17.714844 23.898438 17.535156 23.996094 17.378906 24.175781 C 17.171875 24.417969 17.070312 24.707031 16.976562 24.988281 C 16.921875 25.144531 16.871094 25.304688 16.796875 25.453125 C 16.640625 25.773438 16.417969 26.167969 16.050781 26.410156 C 15.761719 26.601562 15.359375 26.421875 15.109375 26.171875 C 14.871094 25.9375 14.648438 25.574219 14.429688 25.074219 C 14.261719 24.683594 13.789062 23.820312 13.238281 22.816406 C 12.917969 22.238281 12.582031 21.625 12.285156 21.070312 C 12.097656 20.710938 11.921875 20.375 11.78125 20.089844 C 11.628906 19.777344 11.515625 19.519531 11.460938 19.351562 C 11.203125 18.558594 10.9375 17.625 10.886719 16.664062 C 10.878906 16.503906 10.878906 16.347656 10.882812 16.195312 C 10.902344 15.554688 11.03125 14.96875 11.261719 14.457031 C 11.484375 13.964844 11.804688 13.59375 12.273438 13.28125 C 13.152344 12.703125 14.230469 12.613281 15.164062 13.042969 C 15.355469 13.132812 15.554688 13.21875 15.761719 13.300781 C 15.765625 13.300781 15.765625 13.304688 15.769531 13.304688 C 15.773438 13.304688 15.777344 13.308594 15.78125 13.308594 C 16.917969 13.972656 18.335938 14.164062 19.609375 13.835938 C 19.65625 13.824219 19.636719 13.75 19.585938 13.761719 C 18.753906 13.929688 17.90625 13.875 17.09375 13.675781 C 17.402344 13.714844 17.714844 13.714844 18.03125 13.660156 C 18.363281 13.605469 18.667969 13.480469 18.960938 13.359375 C 19.152344 13.285156 19.34375 13.207031 19.542969 13.144531 C 20.105469 12.976562 20.710938 12.816406 21.34375 12.78125 C 22.222656 12.734375 23.003906 12.960938 23.542969 13.417969 C 23.710938 13.5625 23.863281 13.730469 23.996094 13.925781 C 24.269531 14.339844 24.445312 14.851562 24.496094 15.40625 C 24.558594 16.050781 24.46875 16.769531 24.210938 17.667969 C 24.066406 18.175781 23.890625 18.679688 23.691406 19.167969 C 23.566406 19.492188 23.425781 19.8125 23.28125 20.125 Z M 29.246094 14.734375 C 29.140625 14.933594 28.933594 15.050781 28.691406 15.175781 L 27.753906 15.648438 C 27.75 15.652344 27.742188 15.652344 27.738281 15.65625 C 27.726562 15.660156 27.71875 15.664062 27.707031 15.671875 C 27.632812 15.699219 27.554688 15.730469 27.480469 15.753906 C 27.332031 15.804688 27.179688 15.828125 27.023438 15.832031 C 26.996094 15.832031 26.972656 15.832031 26.949219 15.828125 C 26.832031 15.828125 26.714844 15.8125 26.597656 15.789062 C 26.511719 15.769531 26.421875 15.753906 26.339844 15.722656 C 26.273438 15.699219 26.207031 15.667969 26.148438 15.628906 C 26.105469 15.59375 26.066406 15.660156 26.097656 15.699219 C 26.140625 15.761719 26.203125 15.804688 26.269531 15.839844 C 26.347656 15.882812 26.441406 15.910156 26.527344 15.933594 C 26.65625 15.96875 26.789062 15.992188 26.921875 16 C 26.949219 16.003906 26.980469 16.003906 27.007812 16.003906 C 27.195312 16.003906 27.398438 15.976562 27.585938 15.910156 C 27.527344 16.042969 27.460938 16.175781 27.351562 16.269531 C 27.1875 16.40625 26.953125 16.425781 26.742188 16.433594 L 26.710938 16.433594 C 26.550781 16.441406 26.378906 16.441406 26.210938 16.410156 C 26.136719 16.398438 26.066406 16.382812 26 16.359375 C 25.914062 16.332031 25.832031 16.289062 25.765625 16.242188 C 25.734375 16.21875 25.691406 16.191406 25.679688 16.152344 C 25.667969 16.121094 25.675781 16.078125 25.6875 16.035156 C 25.734375 15.8125 25.800781 15.648438 25.960938 15.582031 C 25.976562 15.574219 25.988281 15.570312 26.003906 15.566406 C 26.03125 15.558594 26.054688 15.535156 26.058594 15.507812 C 26.105469 15.347656 26.203125 15.183594 26.355469 15.019531 C 26.40625 14.960938 26.460938 14.910156 26.511719 14.855469 C 26.664062 14.703125 26.824219 14.542969 26.925781 14.347656 C 26.949219 14.3125 26.964844 14.273438 26.980469 14.238281 C 27.019531 14.160156 27.054688 14.082031 27.105469 14.023438 C 27.152344 13.976562 27.222656 13.9375 27.285156 13.9375 C 27.308594 13.9375 27.332031 13.941406 27.347656 13.953125 C 27.429688 14.003906 27.433594 14.144531 27.425781 14.261719 L 27.40625 14.589844 C 27.40625 14.613281 27.410156 14.636719 27.429688 14.652344 C 27.445312 14.671875 27.46875 14.679688 27.488281 14.675781 C 27.503906 14.679688 27.53125 14.679688 27.574219 14.667969 L 27.601562 14.660156 C 27.773438 14.605469 27.953125 14.554688 28.121094 14.46875 C 28.15625 14.449219 28.1875 14.429688 28.222656 14.414062 C 28.304688 14.367188 28.382812 14.324219 28.464844 14.300781 C 28.503906 14.285156 28.546875 14.28125 28.585938 14.285156 C 28.589844 14.285156 28.589844 14.289062 28.589844 14.289062 C 28.570312 14.296875 28.550781 14.304688 28.53125 14.316406 C 28.46875 14.351562 28.410156 14.386719 28.355469 14.429688 C 28.300781 14.46875 28.230469 14.515625 28.195312 14.574219 C 28.175781 14.601562 28.207031 14.640625 28.238281 14.628906 C 28.300781 14.609375 28.359375 14.5625 28.414062 14.527344 C 28.472656 14.488281 28.53125 14.457031 28.59375 14.421875 C 28.652344 14.390625 28.710938 14.359375 28.773438 14.332031 C 28.804688 14.316406 28.839844 14.304688 28.875 14.289062 C 28.878906 14.289062 28.878906 14.289062 28.878906 14.285156 C 28.949219 14.269531 29.039062 14.257812 29.117188 14.300781 C 29.140625 14.3125 29.152344 14.324219 29.15625 14.332031 C 29.152344 14.339844 29.136719 14.355469 29.117188 14.378906 L 29.101562 14.398438 C 29.097656 14.398438 29.097656 14.402344 29.097656 14.402344 C 28.933594 14.410156 28.78125 14.496094 28.640625 14.578125 C 28.53125 14.640625 28.421875 14.707031 28.300781 14.742188 C 28.175781 14.777344 28.046875 14.773438 27.914062 14.757812 C 27.6875 14.726562 27.472656 14.695312 27.246094 14.730469 C 27.023438 14.769531 26.816406 14.851562 26.625 14.96875 C 26.582031 14.996094 26.621094 15.054688 26.660156 15.035156 C 26.878906 14.933594 27.117188 14.878906 27.351562 14.871094 C 27.582031 14.863281 27.796875 14.917969 28.023438 14.929688 C 28.234375 14.941406 28.421875 14.878906 28.605469 14.78125 C 28.785156 14.683594 28.957031 14.597656 29.144531 14.53125 C 29.152344 14.53125 29.15625 14.53125 29.164062 14.53125 C 29.238281 14.535156 29.253906 14.5625 29.261719 14.566406 C 29.292969 14.609375 29.273438 14.683594 29.246094 14.734375 Z M 20.375 16.769531 C 20.382812 16.808594 20.359375 16.835938 20.324219 16.839844 C 20.238281 16.847656 20.175781 16.789062 20.097656 16.757812 C 20.035156 16.730469 19.964844 16.714844 19.894531 16.714844 C 19.835938 16.714844 19.773438 16.726562 19.722656 16.75 C 19.691406 16.765625 19.664062 16.78125 19.636719 16.800781 C 19.613281 16.816406 19.589844 16.84375 19.558594 16.851562 C 19.515625 16.859375 19.488281 16.832031 19.484375 16.792969 C 19.476562 16.75 19.515625 16.707031 19.542969 16.675781 C 19.570312 16.644531 19.605469 16.621094 19.640625 16.601562 C 19.714844 16.5625 19.796875 16.542969 19.882812 16.542969 C 19.976562 16.539062 20.070312 16.558594 20.15625 16.59375 C 20.242188 16.628906 20.351562 16.671875 20.375 16.769531 Z M 17.1875 16.8125 C 17.117188 16.839844 17.050781 16.773438 16.984375 16.75 C 16.921875 16.726562 16.859375 16.714844 16.792969 16.714844 C 16.722656 16.710938 16.660156 16.71875 16.59375 16.738281 C 16.5625 16.746094 16.527344 16.757812 16.496094 16.769531 C 16.464844 16.78125 16.4375 16.796875 16.402344 16.804688 C 16.367188 16.816406 16.332031 16.773438 16.351562 16.742188 C 16.390625 16.671875 16.476562 16.625 16.546875 16.59375 C 16.625 16.5625 16.710938 16.542969 16.792969 16.542969 C 16.875 16.539062 16.960938 16.554688 17.039062 16.582031 C 17.082031 16.597656 17.121094 16.617188 17.160156 16.636719 C 17.207031 16.664062 17.238281 16.691406 17.234375 16.75 C 17.234375 16.78125 17.214844 16.800781 17.1875 16.8125 Z M 19.648438 18.730469 C 19.664062 18.777344 19.667969 18.859375 19.605469 18.875 C 19.554688 18.886719 19.515625 18.839844 19.492188 18.796875 C 19.484375 18.785156 19.476562 18.773438 19.472656 18.761719 C 19.429688 18.804688 19.378906 18.84375 19.335938 18.878906 C 19.25 18.941406 19.160156 19 19.066406 19.042969 C 18.878906 19.132812 18.679688 19.183594 18.472656 19.191406 C 18.253906 19.199219 18.03125 19.15625 17.828125 19.070312 C 17.664062 19 17.441406 18.886719 17.371094 18.707031 C 17.367188 18.714844 17.359375 18.71875 17.355469 18.726562 C 17.351562 18.730469 17.347656 18.738281 17.34375 18.742188 C 17.34375 18.742188 17.339844 18.742188 17.339844 18.742188 C 17.339844 18.742188 17.339844 18.742188 17.339844 18.746094 C 17.335938 18.75 17.335938 18.75 17.332031 18.753906 C 17.320312 18.773438 17.304688 18.789062 17.292969 18.808594 C 17.292969 18.808594 17.285156 18.816406 17.285156 18.816406 C 17.289062 18.808594 17.292969 18.804688 17.285156 18.8125 C 17.285156 18.8125 17.285156 18.816406 17.285156 18.816406 C 17.273438 18.832031 17.265625 18.839844 17.25 18.851562 C 17.238281 18.859375 17.253906 18.839844 17.246094 18.851562 C 17.246094 18.855469 17.242188 18.859375 17.238281 18.859375 C 17.230469 18.871094 17.222656 18.878906 17.210938 18.882812 C 17.179688 18.894531 17.148438 18.878906 17.136719 18.847656 C 17.132812 18.832031 17.136719 18.816406 17.140625 18.800781 C 17.140625 18.796875 17.144531 18.785156 17.140625 18.800781 C 17.140625 18.796875 17.140625 18.792969 17.140625 18.789062 C 17.144531 18.769531 17.148438 18.757812 17.15625 18.738281 C 17.15625 18.738281 17.15625 18.734375 17.15625 18.734375 C 17.160156 18.726562 17.160156 18.722656 17.164062 18.714844 C 17.179688 18.683594 17.207031 18.652344 17.230469 18.621094 C 17.25 18.59375 17.277344 18.570312 17.300781 18.546875 C 17.332031 18.519531 17.359375 18.496094 17.394531 18.476562 C 17.410156 18.46875 17.425781 18.457031 17.441406 18.453125 C 17.457031 18.445312 17.46875 18.441406 17.488281 18.4375 C 17.496094 18.4375 17.503906 18.4375 17.511719 18.4375 C 17.550781 18.433594 17.582031 18.488281 17.558594 18.519531 C 17.550781 18.53125 17.546875 18.542969 17.535156 18.554688 C 17.527344 18.558594 17.519531 18.566406 17.515625 18.570312 C 17.5 18.582031 17.488281 18.59375 17.472656 18.609375 C 17.46875 18.613281 17.464844 18.613281 17.464844 18.617188 C 17.535156 18.671875 17.597656 18.738281 17.675781 18.789062 C 17.753906 18.84375 17.835938 18.886719 17.925781 18.921875 C 18.105469 18.992188 18.296875 19.027344 18.488281 19.015625 C 18.679688 19.007812 18.867188 18.953125 19.035156 18.863281 C 19.113281 18.824219 19.1875 18.773438 19.257812 18.71875 C 19.296875 18.683594 19.335938 18.648438 19.375 18.617188 C 19.375 18.617188 19.375 18.613281 19.375 18.613281 C 19.367188 18.605469 19.359375 18.59375 19.351562 18.585938 C 19.347656 18.582031 19.347656 18.582031 19.34375 18.578125 C 19.339844 18.570312 19.335938 18.566406 19.328125 18.558594 C 19.328125 18.558594 19.328125 18.558594 19.332031 18.558594 C 19.324219 18.550781 19.320312 18.546875 19.316406 18.539062 C 19.296875 18.519531 19.285156 18.503906 19.285156 18.476562 C 19.28125 18.453125 19.300781 18.429688 19.324219 18.425781 C 19.367188 18.414062 19.414062 18.441406 19.449219 18.464844 C 19.480469 18.488281 19.511719 18.515625 19.535156 18.546875 C 19.582031 18.601562 19.628906 18.664062 19.648438 18.730469 Z M 17.339844 18.746094 C 17.339844 18.742188 17.339844 18.742188 17.34375 18.742188 C 17.34375 18.738281 17.347656 18.738281 17.339844 18.746094 Z M 17.339844 18.746094 " fill-opacity="1" fill-rule="nonzero"/></g><g clip-path="url(#9ad65084a3)"><path fill="#efefef" d="M 13.96875 15.78125 L 22.167969 15.78125 L 22.167969 17.09375 L 13.96875 17.09375 Z M 13.96875 15.78125 " fill-opacity="1" fill-rule="nonzero"/></g><g clip-path="url(#f74497230e)"><path fill="#95b7c8" d="M 0.972656 19.585938 C 1.011719 19.621094 1.070312 19.621094 1.109375 19.585938 L 1.476562 19.214844 C 1.511719 19.179688 1.511719 19.117188 1.476562 19.082031 L 1.109375 18.714844 C 1.070312 18.675781 1.011719 18.675781 0.972656 18.714844 L 0.605469 19.082031 C 0.566406 19.117188 0.566406 19.179688 0.605469 19.214844 Z M 1.542969 20.152344 C 1.582031 20.191406 1.640625 20.191406 1.675781 20.152344 L 2.046875 19.785156 C 2.082031 19.75 2.082031 19.6875 2.046875 19.652344 L 1.675781 19.28125 C 1.640625 19.246094 1.582031 19.246094 1.542969 19.28125 L 1.175781 19.652344 C 1.136719 19.6875 1.136719 19.75 1.175781 19.785156 Z M 1.476562 20.222656 L 1.109375 19.851562 C 1.070312 19.816406 1.011719 19.816406 0.972656 19.851562 L 0.605469 20.222656 C 0.566406 20.257812 0.566406 20.316406 0.605469 20.355469 L 0.972656 20.722656 C 1.011719 20.761719 1.070312 20.761719 1.109375 20.722656 L 1.476562 20.355469 C 1.511719 20.316406 1.511719 20.257812 1.476562 20.222656 Z M 0.90625 19.652344 L 0.539062 19.28125 C 0.5 19.246094 0.441406 19.246094 0.40625 19.28125 L 0.0351562 19.652344 C 0 19.6875 0 19.75 0.0351562 19.785156 L 0.40625 20.152344 C 0.441406 20.191406 0.5 20.191406 0.539062 20.152344 L 0.90625 19.785156 C 0.945312 19.75 0.945312 19.6875 0.90625 19.652344 Z M 0.90625 19.652344 " fill-opacity="1" fill-rule="nonzero"/></g><g clip-path="url(#860a744586)"><path fill="#ffffff" d="M 0.90625 19.652344 L 0.714844 19.460938 C 0.660156 19.53125 0.625 19.621094 0.625 19.71875 C 0.625 19.816406 0.660156 19.90625 0.714844 19.976562 L 0.90625 19.785156 C 0.945312 19.75 0.945312 19.6875 0.90625 19.652344 Z M 1.296875 20.042969 L 1.109375 19.851562 C 1.070312 19.816406 1.011719 19.816406 0.972656 19.851562 L 0.785156 20.042969 C 0.855469 20.097656 0.945312 20.132812 1.039062 20.132812 C 1.136719 20.132812 1.226562 20.097656 1.296875 20.042969 Z M 1.175781 19.785156 L 1.363281 19.976562 C 1.421875 19.90625 1.453125 19.816406 1.453125 19.71875 C 1.453125 19.621094 1.421875 19.53125 1.363281 19.460938 L 1.175781 19.652344 C 1.136719 19.6875 1.136719 19.75 1.175781 19.785156 Z M 1.109375 19.585938 L 1.296875 19.394531 C 1.226562 19.339844 1.136719 19.304688 1.039062 19.304688 C 0.945312 19.304688 0.855469 19.339844 0.785156 19.394531 L 0.972656 19.585938 C 1.011719 19.621094 1.070312 19.621094 1.109375 19.585938 Z M 1.109375 19.585938 " fill-opacity="1" fill-rule="nonzero"/><path fill="#bbddf5" d="M 1.335938 19.71875 C 1.335938 19.800781 1.308594 19.871094 1.25 19.925781 C 1.191406 19.984375 1.121094 20.015625 1.039062 20.015625 C 0.960938 20.015625 0.890625 19.984375 0.832031 19.925781 C 0.773438 19.871094 0.746094 19.800781 0.746094 19.71875 C 0.746094 19.636719 0.773438 19.566406 0.832031 19.507812 C 0.890625 19.453125 0.960938 19.421875 1.039062 19.421875 C 1.121094 19.421875 1.191406 19.453125 1.25 19.507812 C 1.308594 19.566406 1.335938 19.636719 1.335938 19.71875 Z M 1.335938 19.71875 " fill-opacity="1" fill-rule="nonzero"/></g><g clip-path="url(#5715823bbb)"><path fill="#95b7c8" d="M 34.722656 19.792969 C 34.757812 19.832031 34.820312 19.832031 34.855469 19.792969 L 35.222656 19.425781 C 35.261719 19.390625 35.261719 19.328125 35.222656 19.292969 L 34.855469 18.925781 C 34.820312 18.886719 34.757812 18.886719 34.722656 18.925781 L 34.351562 19.292969 C 34.316406 19.328125 34.316406 19.390625 34.351562 19.425781 Z M 35.292969 20.363281 C 35.328125 20.402344 35.386719 20.402344 35.425781 20.363281 L 35.792969 19.996094 C 35.832031 19.957031 35.832031 19.898438 35.792969 19.863281 L 35.425781 19.492188 C 35.386719 19.457031 35.328125 19.457031 35.292969 19.492188 L 34.921875 19.863281 C 34.886719 19.898438 34.886719 19.957031 34.921875 19.996094 Z M 35.222656 20.429688 L 34.855469 20.0625 C 34.820312 20.027344 34.757812 20.027344 34.722656 20.0625 L 34.351562 20.429688 C 34.316406 20.46875 34.316406 20.527344 34.351562 20.566406 L 34.722656 20.933594 C 34.757812 20.972656 34.820312 20.972656 34.855469 20.933594 L 35.222656 20.566406 C 35.261719 20.527344 35.261719 20.46875 35.222656 20.429688 Z M 34.65625 19.863281 L 34.285156 19.492188 C 34.25 19.457031 34.191406 19.457031 34.152344 19.492188 L 33.785156 19.863281 C 33.746094 19.898438 33.746094 19.957031 33.785156 19.996094 L 34.152344 20.363281 C 34.191406 20.402344 34.25 20.402344 34.285156 20.363281 L 34.65625 19.996094 C 34.691406 19.957031 34.691406 19.898438 34.65625 19.863281 Z M 34.65625 19.863281 " fill-opacity="1" fill-rule="nonzero"/></g><g clip-path="url(#700be5265d)"><path fill="#ffffff" d="M 34.65625 19.863281 L 34.464844 19.671875 C 34.410156 19.742188 34.375 19.832031 34.375 19.929688 C 34.375 20.027344 34.410156 20.117188 34.464844 20.1875 L 34.65625 19.996094 C 34.691406 19.957031 34.691406 19.898438 34.65625 19.863281 Z M 35.046875 20.253906 L 34.855469 20.0625 C 34.820312 20.027344 34.757812 20.027344 34.722656 20.0625 L 34.53125 20.253906 C 34.601562 20.308594 34.691406 20.34375 34.789062 20.34375 C 34.886719 20.34375 34.976562 20.308594 35.046875 20.253906 Z M 34.921875 19.996094 L 35.113281 20.1875 C 35.167969 20.117188 35.203125 20.027344 35.203125 19.929688 C 35.203125 19.832031 35.167969 19.742188 35.113281 19.671875 L 34.921875 19.863281 C 34.886719 19.898438 34.886719 19.957031 34.921875 19.996094 Z M 34.855469 19.792969 L 35.046875 19.605469 C 34.976562 19.546875 34.886719 19.515625 34.789062 19.515625 C 34.691406 19.515625 34.601562 19.546875 34.53125 19.605469 L 34.722656 19.792969 C 34.757812 19.832031 34.820312 19.832031 34.855469 19.792969 Z M 34.855469 19.792969 " fill-opacity="1" fill-rule="nonzero"/><path fill="#bbddf5" d="M 35.085938 19.929688 C 35.085938 20.011719 35.054688 20.082031 34.996094 20.136719 C 34.941406 20.195312 34.871094 20.222656 34.789062 20.222656 C 34.707031 20.222656 34.636719 20.195312 34.578125 20.136719 C 34.523438 20.082031 34.492188 20.011719 34.492188 19.929688 C 34.492188 19.847656 34.523438 19.777344 34.578125 19.71875 C 34.636719 19.660156 34.707031 19.632812 34.789062 19.632812 C 34.871094 19.632812 34.941406 19.660156 34.996094 19.71875 C 35.054688 19.777344 35.085938 19.847656 35.085938 19.929688 Z M 35.085938 19.929688 " fill-opacity="1" fill-rule="nonzero"/></g><g fill="#303030" fill-opacity="1"><g transform="translate(7.490705, 7.082533)"><g><path d="M -1.046875 -1.6875 L -0.421875 -2.1875 C -0.203125 -2.375 0.0390625 -2.457031 0.3125 -2.4375 C 0.582031 -2.414062 0.804688 -2.296875 0.984375 -2.078125 C 1.160156 -1.867188 1.234375 -1.628906 1.203125 -1.359375 C 1.171875 -1.085938 1.046875 -0.859375 0.828125 -0.671875 L 0.203125 -0.171875 Z M -0.609375 -1.671875 L 0.265625 -0.609375 L 0.640625 -0.921875 C 0.785156 -1.035156 0.863281 -1.179688 0.875 -1.359375 C 0.894531 -1.546875 0.84375 -1.710938 0.71875 -1.859375 C 0.59375 -2.015625 0.4375 -2.101562 0.25 -2.125 C 0.0703125 -2.144531 -0.0859375 -2.09375 -0.234375 -1.96875 Z M -0.609375 -1.671875 "/></g></g></g><g fill="#303030" fill-opacity="1"><g transform="translate(9.317644, 5.608663)"><g><path d="M 0.546875 -2.296875 L -0.375 -1.734375 L -0.09375 -1.28125 L 0.71875 -1.78125 L 0.875 -1.53125 L 0.0625 -1.03125 L 0.34375 -0.5625 L 1.296875 -1.140625 L 1.453125 -0.890625 L 0.21875 -0.140625 L -0.8125 -1.8125 L 0.390625 -2.546875 Z M 0.546875 -2.296875 "/></g></g></g><g fill="#303030" fill-opacity="1"><g transform="translate(11.030421, 4.550582)"><g><path d="M 1.796875 -0.796875 L 1.5 -0.65625 L -0.015625 -1.515625 L 0.546875 -0.234375 L 0.25 -0.109375 L -0.546875 -1.90625 L -0.265625 -2.03125 L 1.28125 -1.15625 L 0.703125 -2.453125 L 1 -2.59375 Z M 1.796875 -0.796875 "/></g></g></g><g fill="#303030" fill-opacity="1"><g transform="translate(13.238263, 3.61073)"><g><path d="M 1.078125 -2.0625 L 0.46875 -1.890625 L 0.9375 -0.28125 L 0.609375 -0.1875 L 0.140625 -1.796875 L -0.4375 -1.625 L -0.515625 -1.90625 L 1 -2.34375 Z M 1.078125 -2.0625 "/></g></g></g><g fill="#303030" fill-opacity="1"><g transform="translate(14.972563, 3.101119)"><g><path d="M 1.453125 -0.671875 L 0.46875 -0.515625 L 0.34375 -0.046875 L 0 0 L 0.546875 -2.078125 L 0.890625 -2.125 L 2.046875 -0.328125 L 1.703125 -0.265625 Z M 1.28125 -0.9375 L 0.765625 -1.75 L 0.53125 -0.828125 Z M 1.28125 -0.9375 "/></g></g></g><g fill="#303030" fill-opacity="1"><g transform="translate(17.20503, 2.775121)"><g><path d="M 0.578125 -0.3125 L 1.421875 -0.34375 L 1.4375 -0.046875 L 0.265625 -0.015625 L 0.203125 -1.984375 L 0.53125 -1.984375 Z M 0.578125 -0.3125 "/></g></g></g><g fill="#303030" fill-opacity="1"><g transform="translate(18.928435, 2.740328)"><g/></g></g><g fill="#303030" fill-opacity="1"><g transform="translate(19.86191, 2.762222)"><g><path d="M 1.578125 -0.203125 L 0.59375 -0.359375 L 0.34375 0.046875 L 0 0 L 1.15625 -1.828125 L 1.5 -1.765625 L 2.0625 0.3125 L 1.703125 0.25 Z M 1.5 -0.515625 L 1.25 -1.4375 L 0.765625 -0.625 Z M 1.5 -0.515625 "/></g></g></g><g fill="#303030" fill-opacity="1"><g transform="translate(22.083017, 3.116877)"><g><path d="M 1.421875 -1.65625 C 1.660156 -1.582031 1.859375 -1.457031 2.015625 -1.28125 L 1.796875 -1.015625 C 1.640625 -1.203125 1.472656 -1.320312 1.296875 -1.375 C 1.203125 -1.394531 1.125 -1.394531 1.0625 -1.375 C 1.007812 -1.351562 0.972656 -1.3125 0.953125 -1.25 C 0.929688 -1.1875 0.9375 -1.125 0.96875 -1.0625 C 1.007812 -1.007812 1.066406 -0.960938 1.140625 -0.921875 C 1.210938 -0.878906 1.285156 -0.828125 1.359375 -0.765625 C 1.441406 -0.703125 1.515625 -0.644531 1.578125 -0.59375 C 1.640625 -0.539062 1.6875 -0.46875 1.71875 -0.375 C 1.75 -0.28125 1.75 -0.1875 1.71875 -0.09375 C 1.664062 0.0820312 1.554688 0.195312 1.390625 0.25 C 1.234375 0.3125 1.050781 0.3125 0.84375 0.25 C 0.695312 0.21875 0.5625 0.148438 0.4375 0.046875 C 0.320312 -0.046875 0.226562 -0.148438 0.15625 -0.265625 L 0.359375 -0.515625 C 0.429688 -0.398438 0.515625 -0.296875 0.609375 -0.203125 C 0.710938 -0.117188 0.820312 -0.0625 0.9375 -0.03125 C 1.039062 0 1.128906 0.00390625 1.203125 -0.015625 C 1.273438 -0.046875 1.328125 -0.101562 1.359375 -0.1875 C 1.367188 -0.238281 1.351562 -0.296875 1.3125 -0.359375 C 1.28125 -0.421875 1.226562 -0.472656 1.15625 -0.515625 C 1.09375 -0.554688 1.019531 -0.601562 0.9375 -0.65625 C 0.863281 -0.71875 0.789062 -0.773438 0.71875 -0.828125 C 0.644531 -0.878906 0.59375 -0.945312 0.5625 -1.03125 C 0.539062 -1.125 0.546875 -1.222656 0.578125 -1.328125 C 0.628906 -1.492188 0.726562 -1.601562 0.875 -1.65625 C 1.03125 -1.71875 1.210938 -1.71875 1.421875 -1.65625 Z M 1.421875 -1.65625 "/></g></g></g><g fill="#303030" fill-opacity="1"><g transform="translate(23.938876, 3.659481)"><g><path d="M 1.59375 -1.46875 C 1.832031 -1.375 2.019531 -1.222656 2.15625 -1.015625 L 1.921875 -0.8125 C 1.785156 -1 1.632812 -1.128906 1.46875 -1.203125 C 1.375 -1.242188 1.289062 -1.253906 1.21875 -1.234375 C 1.15625 -1.222656 1.109375 -1.1875 1.078125 -1.125 C 1.054688 -1.0625 1.0625 -1 1.09375 -0.9375 C 1.125 -0.882812 1.171875 -0.832031 1.234375 -0.78125 C 1.296875 -0.726562 1.363281 -0.664062 1.4375 -0.59375 C 1.507812 -0.53125 1.578125 -0.460938 1.640625 -0.390625 C 1.703125 -0.328125 1.738281 -0.25 1.75 -0.15625 C 1.769531 -0.0703125 1.757812 0.015625 1.71875 0.109375 C 1.644531 0.265625 1.523438 0.363281 1.359375 0.40625 C 1.191406 0.457031 1.007812 0.441406 0.8125 0.359375 C 0.675781 0.296875 0.550781 0.210938 0.4375 0.109375 C 0.332031 0.00390625 0.25 -0.113281 0.1875 -0.25 L 0.4375 -0.46875 C 0.476562 -0.34375 0.539062 -0.234375 0.625 -0.140625 C 0.71875 -0.046875 0.820312 0.0195312 0.9375 0.0625 C 1.039062 0.101562 1.128906 0.117188 1.203125 0.109375 C 1.273438 0.0976562 1.332031 0.0546875 1.375 -0.015625 C 1.394531 -0.078125 1.382812 -0.140625 1.34375 -0.203125 C 1.3125 -0.265625 1.265625 -0.320312 1.203125 -0.375 C 1.148438 -0.425781 1.082031 -0.484375 1 -0.546875 C 0.925781 -0.609375 0.859375 -0.671875 0.796875 -0.734375 C 0.742188 -0.796875 0.707031 -0.867188 0.6875 -0.953125 C 0.664062 -1.046875 0.679688 -1.144531 0.734375 -1.25 C 0.796875 -1.40625 0.90625 -1.503906 1.0625 -1.546875 C 1.21875 -1.585938 1.394531 -1.5625 1.59375 -1.46875 Z M 1.59375 -1.46875 "/></g></g></g><g fill="#303030" fill-opacity="1"><g transform="translate(25.731962, 4.449692)"><g><path d="M 0.515625 0.28125 L 0.234375 0.125 L 1.171875 -1.609375 L 1.453125 -1.453125 Z M 0.515625 0.28125 "/></g></g></g><g fill="#303030" fill-opacity="1"><g transform="translate(26.672905, 4.943102)"><g><path d="M 1.84375 -1.15625 C 2.050781 -1.019531 2.207031 -0.832031 2.3125 -0.59375 L 2.03125 -0.421875 C 1.9375 -0.640625 1.8125 -0.800781 1.65625 -0.90625 C 1.570312 -0.957031 1.492188 -0.984375 1.421875 -0.984375 C 1.359375 -0.984375 1.304688 -0.953125 1.265625 -0.890625 C 1.234375 -0.835938 1.226562 -0.78125 1.25 -0.71875 C 1.269531 -0.65625 1.304688 -0.59375 1.359375 -0.53125 C 1.421875 -0.46875 1.476562 -0.394531 1.53125 -0.3125 C 1.59375 -0.238281 1.644531 -0.164062 1.6875 -0.09375 C 1.726562 -0.0195312 1.75 0.0625 1.75 0.15625 C 1.757812 0.257812 1.734375 0.351562 1.671875 0.4375 C 1.578125 0.582031 1.4375 0.660156 1.25 0.671875 C 1.070312 0.679688 0.894531 0.625 0.71875 0.5 C 0.59375 0.414062 0.488281 0.3125 0.40625 0.1875 C 0.320312 0.0625 0.265625 -0.0664062 0.234375 -0.203125 L 0.515625 -0.375 C 0.535156 -0.238281 0.582031 -0.113281 0.65625 0 C 0.726562 0.101562 0.8125 0.1875 0.90625 0.25 C 1.007812 0.3125 1.097656 0.34375 1.171875 0.34375 C 1.242188 0.34375 1.300781 0.304688 1.34375 0.234375 C 1.382812 0.179688 1.394531 0.117188 1.375 0.046875 C 1.351562 -0.015625 1.316406 -0.078125 1.265625 -0.140625 C 1.210938 -0.203125 1.15625 -0.269531 1.09375 -0.34375 C 1.03125 -0.414062 0.972656 -0.488281 0.921875 -0.5625 C 0.878906 -0.644531 0.859375 -0.726562 0.859375 -0.8125 C 0.859375 -0.894531 0.890625 -0.988281 0.953125 -1.09375 C 1.046875 -1.226562 1.171875 -1.300781 1.328125 -1.3125 C 1.492188 -1.320312 1.664062 -1.269531 1.84375 -1.15625 Z M 1.84375 -1.15625 "/></g></g></g><g fill="#303030" fill-opacity="1"><g transform="translate(28.276595, 6.029505)"><g><path d="M 2.296875 -0.234375 L 1.828125 -0.640625 L 0.75 0.640625 L 0.484375 0.421875 L 1.5625 -0.859375 L 1.109375 -1.265625 L 1.3125 -1.484375 L 2.5 -0.453125 Z M 2.296875 -0.234375 "/></g></g></g><g fill="#303030" fill-opacity="1"><g transform="translate(9.526179, 33.004476)"><g><path d="M 1.8125 0.875 C 1.78125 0.851562 1.769531 0.820312 1.78125 0.78125 C 1.78125 0.738281 1.789062 0.679688 1.8125 0.609375 C 1.84375 0.535156 1.867188 0.445312 1.890625 0.34375 C 1.898438 0.300781 1.890625 0.269531 1.859375 0.25 L 1.171875 -0.078125 C 1.117188 -0.0976562 1.078125 -0.0859375 1.046875 -0.046875 C 0.992188 0.0351562 0.941406 0.109375 0.890625 0.171875 C 0.847656 0.234375 0.816406 0.273438 0.796875 0.296875 C 0.773438 0.335938 0.738281 0.347656 0.6875 0.328125 L 0.25 0.125 C 0.226562 0.101562 0.210938 0.078125 0.203125 0.046875 C 0.203125 0.0234375 0.207031 0.0078125 0.21875 0 C 0.289062 -0.0820312 0.398438 -0.210938 0.546875 -0.390625 C 0.691406 -0.578125 0.875 -0.820312 1.09375 -1.125 C 1.332031 -1.425781 1.523438 -1.675781 1.671875 -1.875 C 1.816406 -2.070312 1.910156 -2.203125 1.953125 -2.265625 C 1.984375 -2.296875 2.019531 -2.300781 2.0625 -2.28125 L 3.015625 -1.828125 C 3.054688 -1.804688 3.070312 -1.773438 3.0625 -1.734375 C 3.039062 -1.660156 3 -1.503906 2.9375 -1.265625 C 2.875 -1.023438 2.796875 -0.722656 2.703125 -0.359375 C 2.609375 0.00390625 2.535156 0.300781 2.484375 0.53125 C 2.441406 0.769531 2.410156 0.941406 2.390625 1.046875 C 2.390625 1.054688 2.375 1.066406 2.34375 1.078125 C 2.3125 1.097656 2.285156 1.101562 2.265625 1.09375 Z M 1.46875 -0.421875 L 1.9375 -0.203125 C 1.945312 -0.191406 1.96875 -0.191406 2 -0.203125 C 2.03125 -0.210938 2.046875 -0.234375 2.046875 -0.265625 C 2.054688 -0.304688 2.066406 -0.359375 2.078125 -0.421875 C 2.097656 -0.492188 2.117188 -0.5625 2.140625 -0.625 C 2.179688 -0.820312 2.222656 -1 2.265625 -1.15625 C 2.304688 -1.320312 2.34375 -1.460938 2.375 -1.578125 C 2.375 -1.597656 2.359375 -1.613281 2.328125 -1.625 C 2.304688 -1.644531 2.289062 -1.644531 2.28125 -1.625 C 2.195312 -1.53125 2.101562 -1.414062 2 -1.28125 C 1.894531 -1.15625 1.78125 -1.015625 1.65625 -0.859375 C 1.625 -0.796875 1.582031 -0.738281 1.53125 -0.6875 C 1.488281 -0.644531 1.453125 -0.601562 1.421875 -0.5625 C 1.410156 -0.53125 1.40625 -0.503906 1.40625 -0.484375 C 1.414062 -0.460938 1.4375 -0.441406 1.46875 -0.421875 Z M 1.46875 -0.421875 "/></g></g></g><g fill="#303030" fill-opacity="1"><g transform="translate(12.419038, 34.325495)"><g><path d="M 0.96875 -0.28125 C 0.957031 -0.257812 0.957031 -0.238281 0.96875 -0.21875 C 0.976562 -0.195312 0.992188 -0.179688 1.015625 -0.171875 L 1.796875 0.0625 C 1.816406 0.0703125 1.832031 0.0859375 1.84375 0.109375 C 1.851562 0.140625 1.859375 0.164062 1.859375 0.1875 L 1.765625 0.453125 C 1.765625 0.472656 1.753906 0.488281 1.734375 0.5 C 1.710938 0.507812 1.691406 0.507812 1.671875 0.5 L 0.28125 0.078125 C 0.257812 0.078125 0.242188 0.0664062 0.234375 0.046875 C 0.222656 0.0234375 0.21875 0.00390625 0.21875 -0.015625 L 1.03125 -2.6875 C 1.03125 -2.707031 1.039062 -2.722656 1.0625 -2.734375 C 1.082031 -2.742188 1.101562 -2.75 1.125 -2.75 L 1.59375 -2.609375 C 1.625 -2.597656 1.644531 -2.582031 1.65625 -2.5625 C 1.664062 -2.539062 1.671875 -2.519531 1.671875 -2.5 C 1.648438 -2.425781 1.613281 -2.3125 1.5625 -2.15625 C 1.507812 -2 1.453125 -1.816406 1.390625 -1.609375 C 1.328125 -1.410156 1.253906 -1.195312 1.171875 -0.96875 C 1.097656 -0.738281 1.03125 -0.507812 0.96875 -0.28125 Z M 0.96875 -0.28125 "/></g></g></g><g fill="#303030" fill-opacity="1"><g transform="translate(14.722959, 35.003745)"><g><path d="M 2.015625 -1.171875 C 2.160156 -1.109375 2.257812 -1.023438 2.3125 -0.921875 C 2.375 -0.828125 2.394531 -0.691406 2.375 -0.515625 C 2.34375 -0.335938 2.289062 -0.195312 2.21875 -0.09375 C 2.15625 0 2.070312 0.0703125 1.96875 0.125 C 1.863281 0.175781 1.75 0.203125 1.625 0.203125 C 1.5 0.203125 1.363281 0.191406 1.21875 0.171875 L 0.296875 0.046875 C 0.265625 0.0351562 0.242188 0.0195312 0.234375 0 C 0.222656 -0.0078125 0.222656 -0.0234375 0.234375 -0.046875 C 0.242188 -0.140625 0.265625 -0.300781 0.296875 -0.53125 C 0.335938 -0.757812 0.390625 -1.0625 0.453125 -1.4375 C 0.503906 -1.800781 0.539062 -2.097656 0.5625 -2.328125 C 0.59375 -2.554688 0.613281 -2.71875 0.625 -2.8125 C 0.632812 -2.832031 0.644531 -2.847656 0.65625 -2.859375 C 0.664062 -2.878906 0.6875 -2.882812 0.71875 -2.875 L 1.609375 -2.75 C 1.753906 -2.726562 1.882812 -2.695312 2 -2.65625 C 2.113281 -2.625 2.21875 -2.566406 2.3125 -2.484375 C 2.40625 -2.410156 2.46875 -2.316406 2.5 -2.203125 C 2.539062 -2.085938 2.546875 -1.941406 2.515625 -1.765625 C 2.492188 -1.597656 2.441406 -1.46875 2.359375 -1.375 C 2.273438 -1.289062 2.164062 -1.242188 2.03125 -1.234375 C 2.019531 -1.222656 2.007812 -1.207031 2 -1.1875 C 2 -1.175781 2.003906 -1.171875 2.015625 -1.171875 Z M 1.5625 -2.296875 L 1.28125 -2.328125 C 1.257812 -2.335938 1.238281 -2.332031 1.21875 -2.3125 C 1.195312 -2.300781 1.1875 -2.285156 1.1875 -2.265625 C 1.175781 -2.179688 1.160156 -2.085938 1.140625 -1.984375 C 1.128906 -1.878906 1.109375 -1.765625 1.078125 -1.640625 C 1.078125 -1.617188 1.085938 -1.597656 1.109375 -1.578125 C 1.128906 -1.566406 1.148438 -1.554688 1.171875 -1.546875 L 1.453125 -1.515625 C 1.546875 -1.503906 1.617188 -1.515625 1.671875 -1.546875 C 1.734375 -1.578125 1.773438 -1.625 1.796875 -1.6875 C 1.828125 -1.75 1.847656 -1.8125 1.859375 -1.875 C 1.878906 -1.976562 1.867188 -2.0625 1.828125 -2.125 C 1.796875 -2.1875 1.753906 -2.226562 1.703125 -2.25 C 1.648438 -2.269531 1.601562 -2.285156 1.5625 -2.296875 Z M 1.296875 -0.28125 C 1.335938 -0.269531 1.390625 -0.265625 1.453125 -0.265625 C 1.515625 -0.273438 1.566406 -0.304688 1.609375 -0.359375 C 1.660156 -0.410156 1.695312 -0.492188 1.71875 -0.609375 C 1.726562 -0.660156 1.722656 -0.71875 1.703125 -0.78125 C 1.691406 -0.851562 1.660156 -0.910156 1.609375 -0.953125 C 1.566406 -1.003906 1.5 -1.039062 1.40625 -1.0625 L 1.09375 -1.09375 C 1.070312 -1.101562 1.050781 -1.097656 1.03125 -1.078125 C 1.007812 -1.066406 1 -1.050781 1 -1.03125 C 0.988281 -0.90625 0.972656 -0.789062 0.953125 -0.6875 C 0.941406 -0.582031 0.929688 -0.488281 0.921875 -0.40625 C 0.921875 -0.382812 0.925781 -0.363281 0.9375 -0.34375 C 0.945312 -0.332031 0.960938 -0.320312 0.984375 -0.3125 Z M 1.296875 -0.28125 "/></g></g></g><g fill="#303030" fill-opacity="1"><g transform="translate(17.58672, 35.396063)"><g><path d="M 2.015625 -0.046875 C 1.972656 -0.046875 1.945312 -0.0664062 1.9375 -0.109375 C 1.925781 -0.148438 1.910156 -0.207031 1.890625 -0.28125 C 1.878906 -0.351562 1.863281 -0.441406 1.84375 -0.546875 C 1.832031 -0.597656 1.804688 -0.625 1.765625 -0.625 L 1 -0.609375 C 0.945312 -0.609375 0.914062 -0.582031 0.90625 -0.53125 C 0.894531 -0.425781 0.882812 -0.332031 0.875 -0.25 C 0.863281 -0.175781 0.851562 -0.117188 0.84375 -0.078125 C 0.84375 -0.0351562 0.816406 -0.015625 0.765625 -0.015625 L 0.28125 0 C 0.25 0 0.222656 -0.0078125 0.203125 -0.03125 C 0.191406 -0.0507812 0.1875 -0.0703125 0.1875 -0.09375 C 0.21875 -0.195312 0.253906 -0.363281 0.296875 -0.59375 C 0.335938 -0.832031 0.390625 -1.132812 0.453125 -1.5 C 0.535156 -1.875 0.59375 -2.179688 0.625 -2.421875 C 0.664062 -2.660156 0.691406 -2.820312 0.703125 -2.90625 C 0.710938 -2.945312 0.738281 -2.96875 0.78125 -2.96875 L 1.84375 -3 C 1.894531 -3 1.925781 -2.976562 1.9375 -2.9375 C 1.945312 -2.851562 1.976562 -2.691406 2.03125 -2.453125 C 2.09375 -2.222656 2.160156 -1.921875 2.234375 -1.546875 C 2.316406 -1.179688 2.390625 -0.882812 2.453125 -0.65625 C 2.523438 -0.425781 2.570312 -0.257812 2.59375 -0.15625 C 2.601562 -0.132812 2.597656 -0.113281 2.578125 -0.09375 C 2.554688 -0.0703125 2.535156 -0.0625 2.515625 -0.0625 Z M 1.109375 -1.046875 L 1.625 -1.0625 C 1.644531 -1.0625 1.664062 -1.070312 1.6875 -1.09375 C 1.707031 -1.113281 1.710938 -1.140625 1.703125 -1.171875 C 1.691406 -1.222656 1.675781 -1.28125 1.65625 -1.34375 C 1.644531 -1.40625 1.628906 -1.46875 1.609375 -1.53125 C 1.566406 -1.726562 1.523438 -1.90625 1.484375 -2.0625 C 1.441406 -2.226562 1.410156 -2.363281 1.390625 -2.46875 C 1.378906 -2.5 1.359375 -2.515625 1.328125 -2.515625 C 1.296875 -2.515625 1.28125 -2.5 1.28125 -2.46875 C 1.25 -2.351562 1.21875 -2.210938 1.1875 -2.046875 C 1.15625 -1.890625 1.117188 -1.710938 1.078125 -1.515625 C 1.078125 -1.453125 1.066406 -1.390625 1.046875 -1.328125 C 1.035156 -1.265625 1.023438 -1.207031 1.015625 -1.15625 C 1.015625 -1.125 1.019531 -1.097656 1.03125 -1.078125 C 1.050781 -1.054688 1.078125 -1.046875 1.109375 -1.046875 Z M 1.109375 -1.046875 "/></g></g></g><g fill="#303030" fill-opacity="1"><g transform="translate(20.781879, 35.264499)"><g><path d="M 1.953125 -1.90625 C 2.023438 -1.539062 2.082031 -1.242188 2.125 -1.015625 C 2.175781 -0.785156 2.21875 -0.625 2.25 -0.53125 C 2.25 -0.507812 2.242188 -0.488281 2.234375 -0.46875 C 2.222656 -0.457031 2.207031 -0.445312 2.1875 -0.4375 L 1.75 -0.34375 L 1.3125 -0.265625 C 1.257812 -0.253906 1.222656 -0.273438 1.203125 -0.328125 C 1.171875 -0.410156 1.117188 -0.5625 1.046875 -0.78125 C 0.972656 -1 0.863281 -1.289062 0.71875 -1.65625 C 0.675781 -1.757812 0.632812 -1.859375 0.59375 -1.953125 C 0.5625 -2.046875 0.53125 -2.128906 0.5 -2.203125 C 0.5 -2.222656 0.488281 -2.226562 0.46875 -2.21875 C 0.445312 -2.207031 0.4375 -2.191406 0.4375 -2.171875 C 0.457031 -2.097656 0.472656 -2.015625 0.484375 -1.921875 C 0.492188 -1.828125 0.507812 -1.726562 0.53125 -1.625 C 0.601562 -1.257812 0.664062 -0.960938 0.71875 -0.734375 C 0.769531 -0.503906 0.8125 -0.34375 0.84375 -0.25 C 0.84375 -0.226562 0.835938 -0.207031 0.828125 -0.1875 C 0.816406 -0.164062 0.796875 -0.15625 0.765625 -0.15625 L 0.296875 -0.0625 C 0.265625 -0.0507812 0.238281 -0.0507812 0.21875 -0.0625 C 0.207031 -0.0820312 0.203125 -0.101562 0.203125 -0.125 C 0.179688 -0.21875 0.148438 -0.378906 0.109375 -0.609375 C 0.0664062 -0.835938 0.0078125 -1.132812 -0.0625 -1.5 C -0.132812 -1.851562 -0.191406 -2.144531 -0.234375 -2.375 C -0.285156 -2.613281 -0.320312 -2.773438 -0.34375 -2.859375 C -0.351562 -2.878906 -0.351562 -2.894531 -0.34375 -2.90625 C -0.332031 -2.925781 -0.3125 -2.941406 -0.28125 -2.953125 L 0.28125 -3.0625 L 0.59375 -3.125 C 0.625 -3.132812 0.648438 -3.113281 0.671875 -3.0625 C 0.691406 -2.988281 0.742188 -2.835938 0.828125 -2.609375 C 0.910156 -2.390625 1.023438 -2.101562 1.171875 -1.75 C 1.203125 -1.632812 1.238281 -1.53125 1.28125 -1.4375 C 1.320312 -1.351562 1.359375 -1.269531 1.390625 -1.1875 C 1.398438 -1.164062 1.414062 -1.160156 1.4375 -1.171875 C 1.457031 -1.179688 1.46875 -1.195312 1.46875 -1.21875 C 1.445312 -1.300781 1.425781 -1.382812 1.40625 -1.46875 C 1.382812 -1.5625 1.363281 -1.664062 1.34375 -1.78125 C 1.269531 -2.132812 1.207031 -2.425781 1.15625 -2.65625 C 1.113281 -2.894531 1.082031 -3.054688 1.0625 -3.140625 C 1.050781 -3.160156 1.050781 -3.175781 1.0625 -3.1875 C 1.082031 -3.207031 1.101562 -3.222656 1.125 -3.234375 L 1.609375 -3.328125 C 1.628906 -3.335938 1.644531 -3.332031 1.65625 -3.3125 C 1.675781 -3.300781 1.691406 -3.285156 1.703125 -3.265625 C 1.710938 -3.179688 1.738281 -3.019531 1.78125 -2.78125 C 1.820312 -2.550781 1.878906 -2.257812 1.953125 -1.90625 Z M 1.953125 -1.90625 "/></g></g></g><g fill="#303030" fill-opacity="1"><g transform="translate(23.588181, 34.634937)"><g><path d="M 0.796875 -0.359375 C 0.804688 -0.335938 0.804688 -0.316406 0.796875 -0.296875 C 0.785156 -0.273438 0.765625 -0.257812 0.734375 -0.25 L 0.28125 -0.09375 C 0.25 -0.0820312 0.222656 -0.0820312 0.203125 -0.09375 C 0.191406 -0.101562 0.179688 -0.117188 0.171875 -0.140625 C 0.148438 -0.222656 0.101562 -0.378906 0.03125 -0.609375 C -0.03125 -0.835938 -0.125 -1.128906 -0.25 -1.484375 C -0.363281 -1.828125 -0.457031 -2.109375 -0.53125 -2.328125 C -0.613281 -2.546875 -0.671875 -2.703125 -0.703125 -2.796875 C -0.703125 -2.816406 -0.695312 -2.832031 -0.6875 -2.84375 C -0.6875 -2.863281 -0.671875 -2.878906 -0.640625 -2.890625 L -0.1875 -3.046875 C -0.15625 -3.054688 -0.128906 -3.054688 -0.109375 -3.046875 C -0.0859375 -3.046875 -0.078125 -3.035156 -0.078125 -3.015625 C -0.0546875 -2.910156 -0.015625 -2.742188 0.046875 -2.515625 C 0.117188 -2.296875 0.210938 -2.015625 0.328125 -1.671875 C 0.453125 -1.316406 0.550781 -1.023438 0.625 -0.796875 C 0.707031 -0.578125 0.765625 -0.429688 0.796875 -0.359375 Z M 0.796875 -0.359375 "/></g></g></g><g fill="#303030" fill-opacity="1"><g transform="translate(24.972892, 34.211021)"><g><path d="M 1.8125 -0.875 C 1.78125 -0.851562 1.75 -0.863281 1.71875 -0.90625 C 1.695312 -0.925781 1.660156 -0.96875 1.609375 -1.03125 C 1.566406 -1.09375 1.515625 -1.164062 1.453125 -1.25 C 1.421875 -1.289062 1.390625 -1.300781 1.359375 -1.28125 L 0.671875 -0.953125 C 0.617188 -0.929688 0.597656 -0.898438 0.609375 -0.859375 C 0.640625 -0.753906 0.664062 -0.664062 0.6875 -0.59375 C 0.71875 -0.519531 0.734375 -0.460938 0.734375 -0.421875 C 0.753906 -0.378906 0.738281 -0.347656 0.6875 -0.328125 L 0.25 -0.125 C 0.226562 -0.101562 0.203125 -0.0976562 0.171875 -0.109375 C 0.148438 -0.128906 0.132812 -0.144531 0.125 -0.15625 C 0.113281 -0.257812 0.0820312 -0.425781 0.03125 -0.65625 C -0.0195312 -0.894531 -0.09375 -1.195312 -0.1875 -1.5625 C -0.28125 -1.925781 -0.359375 -2.226562 -0.421875 -2.46875 C -0.484375 -2.707031 -0.523438 -2.867188 -0.546875 -2.953125 C -0.554688 -2.984375 -0.539062 -3.007812 -0.5 -3.03125 L 0.453125 -3.484375 C 0.492188 -3.503906 0.53125 -3.503906 0.5625 -3.484375 C 0.601562 -3.410156 0.695312 -3.273438 0.84375 -3.078125 C 0.988281 -2.878906 1.179688 -2.628906 1.421875 -2.328125 C 1.640625 -2.023438 1.820312 -1.78125 1.96875 -1.59375 C 2.125 -1.414062 2.234375 -1.285156 2.296875 -1.203125 C 2.316406 -1.191406 2.320312 -1.171875 2.3125 -1.140625 C 2.300781 -1.117188 2.285156 -1.101562 2.265625 -1.09375 Z M 0.59375 -1.421875 L 1.0625 -1.640625 C 1.070312 -1.648438 1.082031 -1.664062 1.09375 -1.6875 C 1.101562 -1.707031 1.097656 -1.734375 1.078125 -1.765625 C 1.046875 -1.804688 1.003906 -1.847656 0.953125 -1.890625 C 0.910156 -1.941406 0.878906 -2 0.859375 -2.0625 C 0.734375 -2.21875 0.617188 -2.359375 0.515625 -2.484375 C 0.410156 -2.617188 0.320312 -2.734375 0.25 -2.828125 C 0.226562 -2.847656 0.203125 -2.847656 0.171875 -2.828125 C 0.148438 -2.816406 0.144531 -2.800781 0.15625 -2.78125 C 0.175781 -2.664062 0.207031 -2.523438 0.25 -2.359375 C 0.289062 -2.203125 0.332031 -2.023438 0.375 -1.828125 C 0.382812 -1.765625 0.394531 -1.695312 0.40625 -1.625 C 0.425781 -1.5625 0.441406 -1.507812 0.453125 -1.46875 C 0.460938 -1.4375 0.476562 -1.414062 0.5 -1.40625 C 0.53125 -1.394531 0.5625 -1.398438 0.59375 -1.421875 Z M 0.59375 -1.421875 "/></g></g></g><g fill="#212121" fill-opacity="1"><g transform="translate(14.706699, 9.197321)"><g><path d="M 0.9375 -0.265625 L 0.328125 -0.265625 L 0.21875 0 L 0 0 L 0.53125 -1.203125 L 0.734375 -1.203125 L 1.265625 0 L 1.046875 0 Z M 0.859375 -0.453125 L 0.625 -0.984375 L 0.40625 -0.453125 Z M 0.859375 -0.453125 "/></g></g></g><g fill="#212121" fill-opacity="1"><g transform="translate(15.979412, 9.197321)"><g><path d="M 0.96875 -0.921875 L 0.96875 -0.09375 C 0.96875 0.0390625 0.925781 0.144531 0.84375 0.21875 C 0.757812 0.300781 0.644531 0.34375 0.5 0.34375 C 0.363281 0.34375 0.234375 0.300781 0.109375 0.21875 L 0.203125 0.078125 C 0.285156 0.140625 0.378906 0.171875 0.484375 0.171875 C 0.578125 0.171875 0.648438 0.144531 0.703125 0.09375 C 0.753906 0.0507812 0.78125 -0.00390625 0.78125 -0.078125 L 0.78125 -0.203125 C 0.707031 -0.0976562 0.601562 -0.046875 0.46875 -0.046875 C 0.34375 -0.046875 0.242188 -0.0820312 0.171875 -0.15625 C 0.0976562 -0.238281 0.0625 -0.347656 0.0625 -0.484375 C 0.0625 -0.617188 0.0976562 -0.722656 0.171875 -0.796875 C 0.242188 -0.878906 0.34375 -0.921875 0.46875 -0.921875 C 0.601562 -0.921875 0.707031 -0.867188 0.78125 -0.765625 L 0.78125 -0.921875 Z M 0.515625 -0.203125 C 0.585938 -0.203125 0.648438 -0.226562 0.703125 -0.28125 C 0.753906 -0.332031 0.78125 -0.398438 0.78125 -0.484375 C 0.78125 -0.566406 0.753906 -0.632812 0.703125 -0.6875 C 0.648438 -0.738281 0.582031 -0.765625 0.5 -0.765625 C 0.425781 -0.765625 0.363281 -0.738281 0.3125 -0.6875 C 0.269531 -0.632812 0.25 -0.566406 0.25 -0.484375 C 0.25 -0.398438 0.269531 -0.332031 0.3125 -0.28125 C 0.363281 -0.226562 0.429688 -0.203125 0.515625 -0.203125 Z M 0.515625 -0.203125 "/></g></g></g><g fill="#212121" fill-opacity="1"><g transform="translate(17.083119, 9.197321)"><g><path d="M 0.515625 -0.921875 C 0.679688 -0.921875 0.796875 -0.875 0.859375 -0.78125 C 0.929688 -0.6875 0.960938 -0.550781 0.953125 -0.375 L 0.265625 -0.375 C 0.273438 -0.3125 0.304688 -0.257812 0.359375 -0.21875 C 0.410156 -0.175781 0.472656 -0.15625 0.546875 -0.15625 C 0.648438 -0.15625 0.734375 -0.191406 0.796875 -0.265625 L 0.90625 -0.140625 C 0.8125 -0.046875 0.6875 0 0.53125 0 C 0.382812 0 0.269531 -0.0390625 0.1875 -0.125 C 0.101562 -0.207031 0.0625 -0.316406 0.0625 -0.453125 C 0.0625 -0.585938 0.101562 -0.695312 0.1875 -0.78125 C 0.269531 -0.875 0.378906 -0.921875 0.515625 -0.921875 Z M 0.25 -0.53125 L 0.78125 -0.53125 C 0.78125 -0.601562 0.753906 -0.660156 0.703125 -0.703125 C 0.660156 -0.742188 0.601562 -0.765625 0.53125 -0.765625 C 0.457031 -0.765625 0.394531 -0.742188 0.34375 -0.703125 C 0.289062 -0.660156 0.257812 -0.601562 0.25 -0.53125 Z M 0.25 -0.53125 "/></g></g></g><g fill="#212121" fill-opacity="1"><g transform="translate(18.097149, 9.197321)"><g><path d="M 0.6875 -0.921875 C 0.789062 -0.921875 0.867188 -0.890625 0.921875 -0.828125 C 0.984375 -0.765625 1.015625 -0.675781 1.015625 -0.5625 L 1.015625 0 L 0.828125 0 L 0.828125 -0.515625 C 0.828125 -0.578125 0.804688 -0.628906 0.765625 -0.671875 C 0.722656 -0.710938 0.671875 -0.734375 0.609375 -0.734375 C 0.535156 -0.734375 0.472656 -0.707031 0.421875 -0.65625 C 0.378906 -0.613281 0.351562 -0.554688 0.34375 -0.484375 L 0.34375 0 L 0.140625 0 L 0.140625 -0.921875 L 0.34375 -0.921875 L 0.34375 -0.734375 C 0.40625 -0.859375 0.519531 -0.921875 0.6875 -0.921875 Z M 0.6875 -0.921875 "/></g></g></g><g fill="#212121" fill-opacity="1"><g transform="translate(19.24052, 9.197321)"><g><path d="M 0.515625 -0.921875 C 0.679688 -0.921875 0.8125 -0.867188 0.90625 -0.765625 L 0.796875 -0.640625 C 0.722656 -0.710938 0.632812 -0.75 0.53125 -0.75 C 0.445312 -0.75 0.378906 -0.71875 0.328125 -0.65625 C 0.285156 -0.601562 0.265625 -0.535156 0.265625 -0.453125 C 0.265625 -0.367188 0.285156 -0.296875 0.328125 -0.234375 C 0.378906 -0.179688 0.445312 -0.15625 0.53125 -0.15625 C 0.644531 -0.15625 0.734375 -0.191406 0.796875 -0.265625 L 0.90625 -0.15625 C 0.820312 -0.0507812 0.691406 0 0.515625 0 C 0.378906 0 0.269531 -0.0390625 0.1875 -0.125 C 0.101562 -0.207031 0.0625 -0.316406 0.0625 -0.453125 C 0.0625 -0.585938 0.101562 -0.695312 0.1875 -0.78125 C 0.269531 -0.875 0.378906 -0.921875 0.515625 -0.921875 Z M 0.515625 -0.921875 "/></g></g></g><g fill="#212121" fill-opacity="1"><g transform="translate(20.213163, 9.197321)"><g><path d="M 0.921875 -0.921875 L 0.5 0.125 C 0.445312 0.269531 0.347656 0.34375 0.203125 0.34375 C 0.128906 0.34375 0.0625 0.316406 0 0.265625 L 0.078125 0.109375 C 0.117188 0.140625 0.160156 0.15625 0.203125 0.15625 C 0.265625 0.15625 0.3125 0.125 0.34375 0.0625 L 0.375 -0.015625 L -0.015625 -0.921875 L 0.203125 -0.921875 L 0.46875 -0.21875 L 0.71875 -0.921875 Z M 0.921875 -0.921875 "/></g></g></g></svg>